<?xml version="1.0" standalone="no"?>
<!DOCTYPE svg PUBLIC "-//W3C//DTD SVG 1.1//EN" "http://www.w3.org/Graphics/SVG/1.1/DTD/svg11.dtd" >
<svg>
<metadata>
Created by FontForge 20110222 at Mon Feb 11 14:20:26 2013
 By Artūrs Jansons
(cc)
</metadata>
<defs>
<font id="DTCVanDijk-Italic" horiz-adv-x="1365" vert-adv-y="2048" >
  <font-face 
    font-family="DTCVanDijk"
    font-weight="400"
    font-style="italic"
    font-stretch="normal"
    units-per-em="2048"
    panose-1="0 0 0 0 0 0 0 0 0 0"
    ascent="1475"
    descent="-573"
    x-height="989"
    cap-height="1401"
    bbox="-826 -638 2203 1935"
    underline-thickness="132"
    underline-position="-136"
    slope="235"
    unicode-range="U+0020-F002"
  />
<missing-glyph horiz-adv-x="512" vert-adv-y="2457" 
d="M51 0v1365h410v-1365h-410zM410 51v1263h-308v-1263h308z" />
    <glyph glyph-name=".notdef" horiz-adv-x="512" vert-adv-y="2457" 
d="M51 0v1365h410v-1365h-410zM410 51v1263h-308v-1263h308z" />
    <glyph glyph-name="glyph1" horiz-adv-x="0" vert-adv-y="0" 
 />
    <glyph glyph-name="glyph2" horiz-adv-x="512" vert-adv-y="2457" 
 />
    <glyph glyph-name="space" unicode=" " horiz-adv-x="512" vert-adv-y="2457" 
 />
    <glyph glyph-name="exclam" unicode="!" horiz-adv-x="506" vert-adv-y="2457" 
d="M196 175q-27 -58 -102 -289q-23 21 -63 48l-57 38q17 37 62 157q37 98 44 120q33 -25 58 -40q41 -23 58 -34zM216 251q-16 8 -54 30q-45 23 -60 32q43 91 116 260q111 256 269 591q76 162 116 235l19 -16q70 -59 88 -73l-21 -42q-153 -301 -224 -450q-94 -200 -221 -502z
" />
    <glyph glyph-name="quotedbl" unicode="&#x22;" horiz-adv-x="834" vert-adv-y="2457" 
d="M378 691q-25 9 -55 19q-37 13 -61 19q63 156 149 337q135 281 168 335q15 -12 54 -43q36 -29 48 -38q-200 -368 -303 -629zM706 691q-25 9 -55 19q-37 13 -61 19q63 156 149 337q135 281 168 335q15 -12 54 -43q36 -29 48 -38q-200 -368 -303 -629z" />
    <glyph glyph-name="numbersign" unicode="#" vert-adv-y="2457" 
d="M1123 1018l21 39q117 215 177 327q19 -33 71 -88q-24 -45 -89 -160l-61 -110l58 4l58 4q135 7 166 9q2 -15 6 -57q2 -24 9 -67q-43 1 -63 1q-50 0 -221 -10l-80 -4l-11 -22l-84 -151l-95 -173l-29 -52l60 4l60 4q135 7 166 9q2 -15 6 -57q2 -22 9 -67q-43 1 -64 1
q-49 0 -222 -10l-81 -4l-24 -44l-72 -131l-138 -254l-17 -31q-35 26 -44 32q-30 22 -39 29q29 49 150 269l50 92l17 30l-45 -3l-133 -10l-105 -7l-36 -2l-20 -36l-59 -109l-138 -254l-17 -31q-9 6 -17 12q-22 17 -45 33q-12 9 -21 16q45 79 200 361l-113 -6q-117 -6 -160 -8
q-2 72 -10 126q215 3 351 11l22 40l108 198l65 118l22 39l-114 -6q-119 -6 -162 -8q-3 82 -10 126q208 3 353 11l25 46q144 264 188 347q19 -33 71 -88q-33 -59 -165 -298q56 3 255 16zM1057 898l-45 -3l-124 -9l-114 -7l-34 -3l-87 -158l-110 -198l-22 -40q82 5 288 18
l30 2l29 53l86 158l87 157z" />
    <glyph glyph-name="dollar" unicode="$" vert-adv-y="2457" 
d="M389 -351q-27 13 -65 33q-33 16 -57 28q54 106 125 254q-74 -7 -145 -7q-185 0 -287 58q-98 56 -98 153q0 163 259 275q157 68 379 105q5 -15 12 -51q6 -29 15 -61q-225 -41 -328 -82q-206 -80 -206 -182q0 -44 53 -67q75 -34 207 -34q99 0 195 17l268 632q-49 9 -205 37
q-229 41 -229 189q0 174 303 300q145 60 404 104q84 188 120 300q62 -33 113 -56q-76 -149 -109 -233q60 5 90 5q136 0 233 -34q39 -14 68 -48t29 -78q0 -110 -186 -201q-96 -47 -238 -96q-33 38 -44 49q-31 33 -44 48q12 2 49 17q101 35 227 88q100 42 100 84q0 58 -191 58
q-64 0 -147 -11l-181 -430q237 -50 307 -81q184 -82 184 -245q0 -115 -101 -214q-118 -116 -413 -214q-133 -45 -331 -79q-50 -97 -135 -330zM579 106q252 45 450 145q209 106 209 238q0 99 -164 155q-35 11 -244 57zM766 831l167 391q-191 -30 -326 -92q-86 -40 -136 -87
q-54 -51 -54 -93q0 -37 59 -59t290 -60z" />
    <glyph glyph-name="percent" unicode="%" horiz-adv-x="1568" vert-adv-y="2457" 
d="M1255 697q89 0 141 -63q51 -63 51 -157q0 -133 -79 -283q-80 -149 -193 -224q-82 -54 -169 -54q-92 0 -148 67q-53 63 -53 159q0 179 112 340q90 129 212 186q61 29 126 29zM1231 586q-42 0 -103 -39q-79 -52 -139 -152q-70 -120 -70 -241q0 -59 31 -99q25 -31 64 -31
q61 0 135 59q78 64 136 184q51 106 51 196q0 123 -105 123zM1388 1281q-115 -146 -258 -344q-396 -549 -501 -703q-98 -143 -185 -311q-73 67 -104 84q60 83 193 272q93 128 184 260q223 312 419 605q96 143 143 229q71 -66 109 -92zM729 1387q99 0 156 -78q41 -57 41 -141
q0 -151 -95 -312q-80 -135 -187 -204q-77 -50 -158 -50q-106 0 -162 89q-40 62 -40 141q0 153 89 303q78 133 199 205q81 47 157 47zM703 1274q-85 0 -178 -113q-127 -152 -127 -320q0 -59 30 -96q25 -32 67 -32q68 0 145 68q74 66 129 196q43 100 43 177q0 120 -109 120z
" />
    <glyph glyph-name="ampersand" unicode="&#x26;" horiz-adv-x="1356" vert-adv-y="2457" 
d="M1406 -324q-72 -27 -135 -64q-119 81 -272 244q-84 91 -157 190q-55 73 -57 76q-100 -80 -187 -133q-169 -103 -298 -103q-144 0 -221 107q-56 77 -56 192q0 230 217 454q64 67 246 213q-26 110 -26 198q0 164 73 258q62 79 165 79q83 0 132 -55q51 -59 51 -146
q0 -114 -102 -224q-59 -64 -159 -146q33 -150 91 -291q60 -146 101 -215q191 170 405 494q14 -22 38 -59q27 -42 41 -60q-236 -313 -417 -481q197 -292 527 -528zM596 940q69 61 102 102q60 73 60 147q0 34 -18 56q-17 21 -46 21q-47 0 -78 -44q-34 -50 -34 -153
q0 -54 14 -129zM717 226q-55 92 -122 261q-49 128 -81 243q-359 -282 -359 -540q0 -79 55 -130q43 -41 100 -41q148 0 407 207z" />
    <glyph glyph-name="quotesingle" unicode="'" horiz-adv-x="506" vert-adv-y="2457" 
d="M378 691q-25 9 -55 19q-37 13 -61 19q63 156 149 337q135 281 168 335q15 -12 54 -43q36 -29 48 -38q-200 -368 -303 -629z" />
    <glyph glyph-name="parenleft" unicode="(" horiz-adv-x="652" vert-adv-y="2457" 
d="M962 1605q34 -37 109 -109q-134 -97 -219 -168q-304 -254 -515 -625q-110 -195 -161 -364q-50 -166 -50 -338q0 -262 109 -456q-76 -58 -123 -106q-119 264 -119 539q0 402 240 819q176 305 449 565q117 112 280 243z" />
    <glyph glyph-name="parenright" unicode=")" horiz-adv-x="652" vert-adv-y="2457" 
d="M-245 -561q-35 36 -110 108q134 97 220 168q303 254 514 625q111 195 162 364q50 166 50 338q0 261 -109 456q9 8 19 15q58 45 104 92q119 -266 119 -540q0 -340 -164 -675q-178 -364 -472 -657q-133 -133 -333 -294z" />
    <glyph glyph-name="asterisk" unicode="*" horiz-adv-x="920" vert-adv-y="2457" 
d="M588 1030q-128 112 -256 186q71 59 96 84q79 -87 218 -199q66 162 97 300q79 -49 110 -65q-53 -91 -123 -268q76 -7 166 -7q75 0 150 7q-6 -24 -15 -62q-8 -36 -13 -63q-101 21 -284 33l-9 1q39 -163 98 -300q-93 -7 -127 -12q-11 109 -59 289q-148 -87 -255 -186
q-34 83 -51 117q109 52 249 141z" />
    <glyph glyph-name="plus" unicode="+" vert-adv-y="2457" 
d="M272 745h472l192 440h143l-191 -440h472l-55 -125h-472l-191 -440h-143l191 440h-472z" />
    <glyph glyph-name="comma" unicode="," horiz-adv-x="445" vert-adv-y="2457" 
d="M-94 -320q-42 43 -88 75q140 180 170 249q-23 20 -56 63q31 37 73 97q31 46 49 77q48 -42 130 -91q-16 -74 -104 -235q-68 -125 -174 -235z" />
    <glyph glyph-name="hyphen" unicode="-" horiz-adv-x="500" vert-adv-y="2457" 
d="M472 408h-52l-196 -3q-25 0 -247 3q23 35 58 143q118 -10 288 -10q104 0 196 10q-7 -20 -25 -70q-8 -22 -22 -73z" />
    <glyph glyph-name="period" unicode="." horiz-adv-x="445" vert-adv-y="2457" 
d="M170 175q-23 -48 -102 -289q-41 34 -63 48q-41 27 -57 38q18 38 62 157q37 98 44 120q42 -30 116 -74z" />
    <glyph glyph-name="slash" unicode="/" horiz-adv-x="715" vert-adv-y="2457" 
d="M1041 1563q-61 -87 -134 -206q-35 -57 -316 -537q-344 -587 -447 -770q-150 -265 -187 -328q-30 26 -45 38q-38 29 -51 39q53 76 406 664q406 692 505 868q129 230 170 311q40 -38 99 -79z" />
    <glyph glyph-name="zero" unicode="0" vert-adv-y="2457" 
d="M1003 1382q179 0 295 -118q113 -115 113 -316q0 -247 -142 -510q-156 -292 -403 -430q-154 -86 -312 -86q-203 0 -323 143q-57 68 -87 164q-23 73 -23 148q0 202 97 413q147 321 430 486q180 106 355 106zM977 1250q-133 0 -276 -87q-189 -116 -324 -353
q-124 -219 -124 -418q0 -96 45 -183q82 -156 266 -156q161 0 321 121q183 138 295 386q92 204 92 388q0 164 -96 241q-74 61 -199 61z" />
    <glyph glyph-name="one" unicode="1" vert-adv-y="2457" 
d="M519 93q212 499 463 1027q-168 -153 -321 -255q-24 68 -49 123q323 190 513 449q13 -11 50 -45q11 -10 55 -43q-64 -113 -256 -532q-151 -328 -316 -726h190l118 -2h31l1 -21q3 -75 6 -106q-335 12 -703 12q-59 0 -142 -3q5 34 5 102v20q62 2 83 2l81 -1h138z" />
    <glyph glyph-name="two" unicode="2" vert-adv-y="2457" 
d="M1093 -28q-240 25 -398 25q-274 0 -419 -21q-115 -17 -235 -55q-36 75 -73 111q142 60 319 189q206 150 471 379q288 250 385 385q86 120 86 202q0 34 -24 58q-22 23 -55 23q-73 0 -168 -76q-133 -108 -294 -376q-23 27 -52 60q-31 34 -50 56q139 186 238 284
q177 174 345 174q91 0 144 -59q46 -52 46 -123q0 -164 -199 -393q-161 -185 -550 -500q-168 -136 -290 -220q46 4 185 17q158 15 347 15q67 0 217 -7q3 -16 12 -69q9 -57 12 -79z" />
    <glyph glyph-name="three" unicode="3" vert-adv-y="2457" 
d="M59 35v19q0 61 -15 130q162 -84 364 -84q314 0 532 151q100 70 157 181q38 74 38 151q0 88 -64 160q-101 113 -321 113q-149 0 -283 -57l-8 17q-16 36 -44 86q123 60 207 109l398 233q-244 -26 -465 -26q-22 0 -67 1l-2 16q-11 74 -19 109q85 -7 184 -7q359 0 583 61
q5 -67 36 -154q-24 -13 -90 -50l-81 -42l-329 -191h36q148 0 261 -56q99 -49 153 -133q55 -86 55 -178q0 -164 -122 -318q-126 -158 -361 -240q-175 -61 -370 -61q-198 0 -363 60z" />
    <glyph glyph-name="four" unicode="4" vert-adv-y="2457" 
d="M712 -87l-70 35l-45 22l-18 9q66 126 109 226q72 166 88 199q-47 1 -71 1q-242 0 -508 -26q-17 22 -47 64q-21 29 -45 58q164 103 302 208q162 122 393 314q238 199 375 345q48 51 112 121q12 -18 36 -59q33 -51 46 -72q-51 -75 -151 -293l-239 -533q184 1 350 -13
q3 -36 20 -140q-147 19 -431 25q-134 -296 -206 -491zM834 531q24 53 113 242q133 287 191 400q-145 -138 -179 -169q-370 -327 -639 -496q298 19 514 23z" />
    <glyph glyph-name="five" unicode="5" vert-adv-y="2457" 
d="M-18 19q-1 18 -9 70q-7 52 -12 74q212 -57 379 -57q305 0 545 149q129 81 197 206q47 86 47 190q0 137 -84 200q-70 53 -169 53q-160 0 -416 -115q-11 17 -38 54q-21 29 -44 52q244 217 414 483q162 -20 298 -20q141 0 220 9q6 -76 25 -133q-69 -4 -146 -4q-122 0 -243 9
q-56 5 -95 6q-68 -106 -207 -265q89 22 120 29q69 16 139 16q168 0 261 -87q105 -97 105 -266q0 -207 -142 -377q-141 -168 -381 -255q-192 -69 -421 -69q-145 0 -343 48z" />
    <glyph glyph-name="six" unicode="6" vert-adv-y="2457" 
d="M1388 1312q-175 -62 -405 -198q-380 -226 -593 -487q-92 -112 -151 -239q-40 -87 -40 -168q0 -73 48 -111q42 -34 115 -34q145 0 333 80q216 92 352 235q130 136 130 253q0 59 -43 91q-42 32 -112 32q-160 0 -331 -100q-90 -53 -182 -142q-3 29 -12 85q-7 44 -12 64
q105 82 211 133q188 92 350 92q136 0 207 -77q61 -65 61 -159q0 -164 -149 -329q-158 -174 -411 -286q-229 -100 -429 -100q-143 0 -215 82q-58 65 -58 156q0 265 313 601q241 260 612 475q162 94 304 156l41 -41q45 -45 66 -64z" />
    <glyph glyph-name="seven" unicode="7" vert-adv-y="2457" 
d="M1466 828q-140 7 -311 7q-97 0 -243 -7q-171 -162 -441 -509q-194 -253 -326 -485q-34 32 -125 87q171 256 362 494q212 265 361 412q-124 -9 -213 -23q-21 102 -37 145q147 -6 198 -6q35 0 177 4q55 57 194 171q108 87 171 130q-180 -20 -779 -34q-10 80 -27 153
q127 -11 310 -11q332 0 535 16q65 6 172 30q7 -15 20 -55q9 -26 24 -59q-78 -42 -210 -145q-162 -127 -232 -194q41 -1 54 -1q232 0 343 18q3 -53 23 -138z" />
    <glyph glyph-name="eight" unicode="8" vert-adv-y="2457" 
d="M976 822q382 -68 382 -345q0 -168 -122 -307q-111 -127 -333 -195q-176 -55 -365 -55q-162 0 -300 57q-104 44 -163 131q-57 84 -57 204q0 270 271 417q99 53 243 81q-58 29 -84 56q-48 50 -48 118q0 148 158 261q159 113 361 113q183 0 277 -95q66 -67 66 -149
q0 -133 -141 -226q-45 -29 -145 -66zM914 1237q-151 0 -280 -92q-106 -75 -106 -164q0 -62 60 -94q55 -30 131 -30q160 0 306 85q105 62 105 148q0 64 -59 108q-54 39 -157 39zM776 740q-300 0 -480 -138q-141 -109 -141 -270q0 -116 80 -188q51 -45 148 -71q77 -20 161 -20
q287 0 493 124q84 51 136 136q44 71 44 153q0 129 -103 198q-112 76 -338 76z" />
    <glyph glyph-name="nine" unicode="9" vert-adv-y="2457" 
d="M267 -63q-14 13 -58 54q-39 35 -53 49q244 100 409 200q378 230 588 486q190 232 190 414q0 69 -52 104q-49 33 -119 33q-139 0 -318 -76q-247 -105 -384 -265q-105 -123 -105 -227q0 -61 48 -94q43 -28 104 -28q169 0 339 102q71 42 183 142l3 -23l8 -53q7 -51 10 -71
q-79 -69 -177 -120q-210 -107 -395 -107q-132 0 -202 79q-58 67 -58 155q0 169 166 342q163 171 416 280q218 93 399 93q128 0 207 -70q77 -68 77 -170q0 -176 -149 -398q-139 -208 -398 -418q-203 -166 -469 -307q-73 -39 -210 -106z" />
    <glyph glyph-name="colon" unicode=":" horiz-adv-x="445" vert-adv-y="2457" 
d="M169 175q-29 -67 -102 -289q-33 27 -120 86q42 99 106 277q27 -21 116 -74zM476 869q-10 -20 -47 -106q-58 -130 -121 -216q-54 59 -117 89q123 185 161 327q20 -16 63 -49q33 -27 61 -45z" />
    <glyph glyph-name="semicolon" unicode=";" horiz-adv-x="445" vert-adv-y="2457" 
d="M-94 -320q-28 26 -88 75q140 182 170 249q-23 20 -56 63q67 78 122 174q57 -50 130 -91q-16 -73 -104 -235q-68 -124 -174 -235zM463 869q-64 -145 -93.5 -202t-75.5 -120q-53 59 -116 89q123 186 161 327q71 -60 124 -94z" />
    <glyph glyph-name="less" unicode="&#x3c;" horiz-adv-x="1024" vert-adv-y="2457" 
d="M1264 1165l-62 -143l-878 -333l589 -333l-62 -143l-708 414l54 125z" />
    <glyph glyph-name="equal" unicode="=" vert-adv-y="2457" 
d="M350 924h1087l-54 -125h-1087zM194 566h1088l-55 -125h-1087z" />
    <glyph glyph-name="greater" unicode="&#x3e;" horiz-adv-x="1024" vert-adv-y="2457" 
d="M-37 213l62 143l878 333l-588 333l62 143l707 -414l-54 -125z" />
    <glyph glyph-name="question" unicode="?" horiz-adv-x="700" vert-adv-y="2457" 
d="M297 154q-22 -42 -52 -100q-39 -71 -61 -125q-16 26 -52 81q-30 45 -42 61q60 93 121 210q11 -16 40 -57q31 -45 46 -70zM257 298q-20 40 -69 102q90 91 172 175q80 81 219 254q241 300 241 426q0 21 -12 35q-15 18 -41 18q-66 0 -200 -104q-63 -49 -229 -219l-30 -30
l-7 20q-19 57 -41 109q113 119 239 214q177 135 301 135q64 0 104 -43q33 -36 33 -102q0 -135 -105 -305q-207 -337 -575 -685z" />
    <glyph glyph-name="at" unicode="@" vert-adv-y="2457" 
d="M931 431q101 58 185 128q125 103 196 216q55 86 55 198q0 150 -118 240q-91 69 -234 69q-310 0 -554 -308q-116 -147 -180 -324q-54 -151 -54 -289q0 -173 109 -266q87 -74 218 -74q103 0 190 40q92 43 211 135q32 -69 58 -103q-220 -173 -456 -173q-219 0 -339 146
q-97 118 -97 305q0 259 141 507q150 264 396 403q177 100 361 100q189 0 321 -111q73 -60 111 -146q30 -67 30 -138q0 -270 -297 -515q-99 -82 -223 -149l-39 82l-15 -42l-14 -41l-11 -33q-29 3 -69 8q-35 3 -47 5l13 31q64 153 102 248q-133 -172 -210 -230
q-75 -57 -136 -57q-57 0 -97 39q-28 28 -28 74q0 128 120 294q163 226 500 393q5 -12 20 -47q13 -30 20 -40q-253 -138 -383 -283q-92 -102 -138 -212q-20 -46 -20 -79q0 -40 34 -40q71 0 253 235q128 164 234 356q23 -5 62 -11q23 -4 55 -10q-49 -76 -103 -189
q-36 -79 -104 -263z" />
    <glyph glyph-name="A" unicode="A" horiz-adv-x="1388" vert-adv-y="2457" 
d="M1203 -26q-62 -13 -148 -47q-3 60 -3 116q0 138 11 500l2 56q-70 -5 -182 -12q-136 -8 -305 -21q-34 -38 -190 -216q-172 -196 -408 -423q-41 63 -86 105q48 49 192 184q26 21 231 243q40 43 86 95q-48 -2 -181 -9q-132 -6 -178 -9q-14 80 -29 132l38 1q216 1 468 18
l63 75q388 456 544 686l19 -11q69 -41 96 -51q-32 -218 -44 -595l-3 -64q63 2 112 7q5 -16 15 -60q5 -23 20 -70q-37 2 -57 2q-15 0 -93 -3v-73l-2 -259q0 -138 12 -297zM1068 718q4 52 15 259q5 83 21 239q-40 -50 -133 -169q-213 -262 -285 -351q43 1 189 10q148 8 193 12
z" />
    <glyph glyph-name="B" unicode="B" horiz-adv-x="1289" vert-adv-y="2457" 
d="M88 -49l-16 12q-31 23 -60 41q-17 11 -29 19l547 1229q-110 -8 -259 -44q-11 48 -37 111q359 62 583 62q154 0 240 -57q102 -67 102 -182q0 -125 -117 -202q-64 -42 -187 -85q130 -19 208 -58q82 -40 129 -111q50 -76 50 -170q0 -198 -211 -332q-140 -90 -349 -135
q-239 -53 -495 -64q-5 15 -16 52q-8 30 -22 60q-11 -25 -33 -82q-2 -6 -28 -64zM486 858q192 32 339 88q204 80 204 195q0 133 -247 133q-47 0 -116 -8zM156 111q35 -1 52 -1q180 0 376 36q252 46 384 140q143 100 143 234q0 128 -136 194q-95 46 -233 46q-107 0 -242 -29
l-39 72z" />
    <glyph glyph-name="C" unicode="C" horiz-adv-x="1086" vert-adv-y="2457" 
d="M1056 463q-133 -200 -293 -346q-215 -196 -406 -196q-154 0 -231 118q-55 84 -55 203q0 249 159 526q192 334 514 494q194 96 454 127l5 -18q22 -83 39 -122q-192 0 -376 -71q-210 -80 -350 -229q-153 -161 -240 -371q-70 -169 -70 -315q0 -98 45 -151q43 -51 114 -51
q166 0 376 218q103 106 214 270q11 -9 44 -40q43 -34 57 -46z" />
    <glyph glyph-name="D" unicode="D" horiz-adv-x="1258" vert-adv-y="2457" 
d="M-123 -82q-32 101 -46 131l26 1q127 2 157 5l506 1180q-90 -8 -213 -37q-4 14 -13 57q-2 9 -19 69q91 16 134 23q128 21 252 21q251 0 399 -101q100 -68 155 -172q60 -114 60 -253q0 -295 -200 -528q-146 -171 -378 -253q-379 -134 -820 -143zM163 71q315 33 558 143
q204 92 314 275q101 166 101 341q0 145 -84 258q-78 105 -237 136q-61 12 -160 12z" />
    <glyph glyph-name="E" unicode="E" horiz-adv-x="1209" vert-adv-y="2457" 
d="M1145 11q-106 3 -157 3q-250 0 -658 -20q-265 -13 -444 -36q-12 62 -34 127l28 3q125 13 164 15l309 718q-18 -2 -61 -3q-6 0 -42 -2l-23 -1q-7 48 -37 126q49 -1 85 -1q30 0 131 4l127 295h-29q-50 0 -79 -5q-8 46 -33 139q235 -6 318 -6q233 0 403 6q18 -67 48 -135
q-169 8 -271 8q-144 0 -228 -3l-129 -299q291 7 556 28q10 -59 35 -125l-61 -2l-177 -6l-201 -7q-160 -5 -200 -7l-306 -716l80 5q489 27 734 27q34 0 107 -1q32 -101 45 -129z" />
    <glyph glyph-name="F" unicode="F" horiz-adv-x="894" vert-adv-y="2457" 
d="M145 -54q-49 34 -120 74l327 776q-118 -6 -163 -13q-4 13 -20 68q-5 20 -24 64q62 -1 96 -1q66 0 159 3l131 315q-59 0 -103 -3q-4 20 -16 70q-4 17 -14 66q139 -7 418 -7q232 0 384 3l5 -13q23 -62 52 -128q-60 2 -236 6l-157 3l-128 3l-65 1l-130 -314q164 -3 420 18
q13 -46 43 -130q-73 4 -134 4q-112 0 -381 -15l-298 -713q-25 -75 -46 -137z" />
    <glyph glyph-name="G" unicode="G" horiz-adv-x="1329" vert-adv-y="2457" 
d="M757 -518l-19 18q-34 32 -61 55q-16 14 -28 26l311 681q-88 -100 -183 -168q-189 -132 -347 -132q-143 0 -235 118q-83 105 -83 269q0 250 168 505q238 361 614 482q206 66 434 75q7 -16 29 -74q5 -13 35 -78q-75 7 -127 7q-338 0 -624 -213q-218 -163 -326 -395
q-70 -149 -70 -293q0 -136 67 -210q57 -62 139 -62q151 0 341 162q248 212 357 487q-364 -76 -590 -82q-9 96 -23 129q213 9 384 33q245 37 361 78q22 -29 82 -86q-77 -80 -240 -455q-161 -370 -366 -877z" />
    <glyph glyph-name="H" unicode="H" horiz-adv-x="1374" vert-adv-y="2457" 
d="M964 -64q-29 21 -56 39q-39 26 -57 39l32 75l99 231q151 368 186 459l-76 -1q-328 -7 -530 -13l-77 -3l-29 -66q-149 -341 -328 -760q-21 14 -57 41q-29 20 -55 37l33 74q119 267 180 410q82 197 111 261q-63 0 -142 -10q5 51 5 87q0 15 -1 52q34 -3 65 -3q68 0 127 3
q138 304 221 511q15 -11 57 -40q30 -20 56 -37q-57 -125 -163 -377l-24 -57q165 1 616 18l65 2l31 75q147 352 170 416q46 -37 118 -77q-216 -487 -577 -1386z" />
    <glyph glyph-name="I" unicode="I" horiz-adv-x="527" vert-adv-y="2457" 
d="M119 -58q-45 34 -59 44q-41 28 -53 38q22 49 113 265q390 931 462 1112q33 -35 112 -91l-16 -38l-127 -296l-167 -396l-147 -350l-105 -257z" />
    <glyph glyph-name="J" unicode="J" horiz-adv-x="650" vert-adv-y="2457" 
d="M1120 1285q-66 -7 -164 -12q-91 -4 -176 -10l-410 -968q-91 -214 -183 -304q-147 -143 -356 -143q-91 0 -185 27q16 47 39 134q110 -30 166 -30q240 0 382 337l395 940q-52 -2 -191 -11q-108 -5 -149 -7q-10 96 -15 126q516 12 844 43q-1 -20 -1 -27q0 -56 4 -95z" />
    <glyph glyph-name="K" unicode="K" horiz-adv-x="1168" vert-adv-y="2457" 
d="M1123 -214q-44 -13 -141 -50q-116 180 -244 460q-109 239 -215 528q-18 -15 -54 -41l-39 -30l-19 -15l-247 -547q-39 -88 -66 -148l-13 11q-32 29 -64 50q-19 13 -31 23l617 1372q35 -27 114 -67l-15 -34q-39 -81 -76 -163l-127 -281q155 105 437 289q281 182 422 267
q15 -90 37 -146q-111 -55 -395 -228q-262 -159 -374 -237q202 -603 493 -1013z" />
    <glyph glyph-name="L" unicode="L" horiz-adv-x="876" vert-adv-y="2457" 
d="M770 -22q-130 9 -278 9q-270 0 -543 -19q3 25 3 49q0 35 -3 70h7q5 0 28 2h11q8 0 22 -2q36 86 125 282q81 178 218 490q46 103 91 204q80 178 140 320l18 44q15 -10 56 -38q28 -18 57 -32q-26 -62 -102 -224q-47 -98 -217 -477q-192 -431 -246 -556q211 14 470 14
q55 0 132 -4q1 -84 11 -132z" />
    <glyph glyph-name="M" unicode="M" horiz-adv-x="1841" vert-adv-y="2457" 
d="M1706 -76q-25 -5 -58 -19q-43 -20 -71 -38q-2 69 -2 97q0 138 22 622q13 283 26 434q-43 -63 -187 -260q-389 -547 -639 -863l-144 -13q42 92 42 177q0 60 -7 193q-11 210 -11 449q0 149 11 317q-194 -410 -665 -1080l-49 -70q-49 47 -113 93q150 182 335 456
q225 333 396 665q81 159 122 284q75 -44 117 -65q-30 -188 -30 -505q0 -55 7 -348q5 -236 12 -316q119 136 512 694q307 439 358 540q55 -43 92 -65q-37 -115 -50 -356q-29 -563 -29 -868q0 -67 3 -155z" />
    <glyph glyph-name="N" unicode="N" horiz-adv-x="1371" vert-adv-y="2457" 
d="M954 -63q-13 7 -49 32q-18 12 -47 25q2 19 2 29q0 42 -34 141q-160 449 -229 920l-394 -888l-40 -89l-26 -67q-32 -76 -41 -103q-47 41 -111 74l482 1095q62 151 73 182q10 34 15 96q28 6 141 50q4 -298 91 -671q91 -383 152 -525l208 463q144 319 199 448
q95 219 114 262q17 -14 60 -51q24 -20 49 -36q-104 -216 -259 -562q-338 -752 -356 -825z" />
    <glyph glyph-name="O" unicode="O" horiz-adv-x="1373" vert-adv-y="2457" 
d="M1010 1381q174 0 287 -111q118 -116 118 -322q0 -244 -140 -504q-142 -266 -358 -410q-173 -114 -363 -114q-120 0 -222 55q-110 60 -161 172q-47 102 -47 222q0 261 140 509q146 258 398 402q175 101 348 101zM985 1252q-149 0 -308 -107q-200 -133 -323 -384
q-99 -202 -99 -386q0 -165 104 -253q83 -71 208 -71q159 0 315 116q191 141 310 409q83 186 83 362q0 164 -89 247q-71 67 -201 67z" />
    <glyph glyph-name="P" unicode="P" horiz-adv-x="991" vert-adv-y="2457" 
d="M116 -55q-79 57 -116 74q30 52 94 205l413 1021q-93 -9 -271 -45q-14 55 -45 119q143 21 213 31q226 32 373 32q175 0 283 -62q53 -31 84 -85q32 -55 32 -123q0 -213 -280 -351q-142 -70 -428 -153l-43 98zM436 729q195 42 371 121q111 50 179 120q60 62 60 133
q0 91 -92 135q-68 32 -178 32q-53 0 -124 -9z" />
    <glyph glyph-name="Q" unicode="Q" horiz-adv-x="1372" vert-adv-y="2457" 
d="M1344 -388q-15 -7 -100 -42l-23 -10q-156 188 -306 477q-174 -114 -356 -114q-208 0 -329 145q-108 129 -108 311q0 262 161 526q154 253 383 382q170 96 344 96q199 0 312 -135q97 -116 97 -283q0 -257 -152 -533q-99 -180 -248 -315q163 -310 325 -505zM857 153
q-90 180 -184 485q16 11 61 45q39 27 54 39q78 -280 175 -485q112 120 172 225q144 246 144 490q0 90 -41 169q-68 131 -233 131q-282 0 -512 -274q-103 -122 -168 -276q-72 -166 -72 -314q0 -91 44 -176q41 -79 113 -121q68 -39 149 -39q152 0 298 101z" />
    <glyph glyph-name="R" unicode="R" horiz-adv-x="1270" vert-adv-y="2457" 
d="M1335 -212q-50 -34 -130 -75q-316 318 -753 1036l-278 -631q-23 -53 -45 -107q-16 -39 -33 -77q-17 11 -58 42q-36 24 -50 35l543 1227q-137 -9 -304 -61q-11 43 -39 123q317 66 615 66q188 0 288 -52q126 -66 126 -187q0 -117 -110 -208q-109 -91 -491 -200
q332 -576 719 -931zM480 815q205 31 378 103q225 93 225 206q0 71 -96 105q-87 31 -194 31q-48 0 -122 -7z" />
    <glyph glyph-name="S" unicode="S" horiz-adv-x="1483" vert-adv-y="2457" 
d="M1029 866q-19 22 -41 47q-28 33 -48 53q22 7 49 15q185 53 315 103q148 57 148 108q0 62 -195 62q-148 0 -344 -44q-203 -46 -327 -118q-56 -33 -94 -83q-20 -27 -20 -52q0 -46 73 -72q30 -10 177 -36q364 -63 472 -103t161 -94q65 -67 65 -167q0 -143 -140 -251
q-156 -121 -466 -203q-289 -76 -536 -76q-182 0 -278 65q-88 58 -88 147q0 148 208 254q183 94 476 131q110 14 266 28q5 -16 23 -60q22 -49 31 -66q-229 -3 -345 -21q-252 -37 -380 -103q-71 -37 -116 -83q-34 -36 -34 -68q0 -52 75 -84q58 -25 175 -25q210 0 443 59
q185 46 328 113q228 107 228 240q0 103 -176 162q-85 29 -431 92q-201 36 -264 72q-85 49 -85 133q0 118 138 220q139 102 399 159q204 44 378 44q166 0 257 -45q81 -40 81 -115q0 -88 -110 -162q-130 -87 -448 -176z" />
    <glyph glyph-name="T" unicode="T" horiz-adv-x="900" vert-adv-y="2457" 
d="M273 -94q-46 38 -59 48q-39 30 -56 44l572 1257q-67 -4 -220 -15q-121 -8 -208 -10q-6 88 -12 126q693 34 972 67q-2 -43 -2 -66q0 -32 6 -65q-175 -6 -391 -25l-521 -1165q-6 -12 -27 -65q-12 -29 -26 -62q-18 -41 -28 -69z" />
    <glyph glyph-name="U" unicode="U" horiz-adv-x="1260" vert-adv-y="2457" 
d="M831 -74q-64 53 -109 85q40 92 124 278q86 191 221 510q-191 -235 -497 -507q-134 -123 -468 -366q-10 10 -51 60q-35 34 -49 48q42 91 229 544l117 287q161 385 224 545q17 -17 58 -51q36 -31 53 -44q-161 -341 -491 -1161q118 78 373 302q227 197 425 426
q157 180 335 512q44 -47 105 -100l-23 -51q-116 -257 -220 -496q-103 -234 -255 -576q-44 -97 -101 -245z" />
    <glyph glyph-name="V" unicode="V" horiz-adv-x="1106" vert-adv-y="2457" 
d="M1441 1326q-264 -261 -558 -696q-212 -312 -297 -487q-39 -80 -93 -220l-107 53q6 58 6 112q0 275 -61 689q-61 417 -106 605q75 25 139 57q30 -141 96 -622q45 -343 56 -564q138 273 435 688q151 212 397 498q26 -35 79 -97z" />
    <glyph glyph-name="W" unicode="W" horiz-adv-x="1861" vert-adv-y="2457" 
d="M2203 1347q-292 -264 -646 -801q-225 -346 -341 -653l-120 48q2 41 2 49q0 13 -5 202q-1 35 -1 79q0 434 49 792q-154 -216 -387 -633q-130 -237 -181 -359q-36 -85 -64 -178l-101 62q4 69 4 136q0 254 -40 673q-39 401 -79 595q80 21 126 46q45 -254 77 -591
q16 -171 29 -396q5 -92 9 -154q145 280 346 612q125 207 336 513q41 -40 105 -82q-43 -114 -65 -296q-44 -357 -44 -688q0 -65 7 -132q82 157 240 406q222 345 426 588q155 187 236 276q25 -35 68 -95z" />
    <glyph glyph-name="X" unicode="X" horiz-adv-x="1272" vert-adv-y="2457" 
d="M1297 -372q-154 163 -327 417q-154 228 -304 512q-41 -42 -166 -173q-351 -367 -528 -528q-6 16 -23 72q-6 19 -27 80q235 203 375 344q254 263 308 329q-85 158 -267 679q14 13 69 60q23 22 47 45q10 9 19 18q16 -124 62 -266q81 -245 167 -429q133 150 309 359
q56 68 176 214q27 33 67 81q32 -78 71 -134q-107 -120 -366 -420l-157 -177q-21 -24 -41 -49q162 -307 295 -513q150 -228 323 -404q-14 -25 -37 -55q-27 -37 -45 -62z" />
    <glyph glyph-name="Y" unicode="Y" horiz-adv-x="1040" vert-adv-y="2457" 
d="M1308 1354q-9 -13 -18 -25q-131 -176 -416 -744q-235 -470 -408 -939q-15 8 -61 37q-46 26 -63 36q97 265 309 709q131 273 315 594l-726 -554q-13 15 -49 61q-34 40 -44 52q80 155 251 528q163 345 202 438q56 -66 105 -105l-22 -47q-166 -347 -317 -650l-24 -48
l460 347q203 162 268 237q78 87 130 161q35 -31 56 -47q41 -31 52 -41z" />
    <glyph glyph-name="Z" unicode="Z" horiz-adv-x="1303" vert-adv-y="2457" 
d="M1252 -55q-110 8 -295 14q-424 15 -614 15q-309 0 -509 -29l-43 107q107 49 204 118q64 45 248 194q132 108 211 177l806 709q-119 -15 -266 -24q-251 -15 -406 -15q-41 0 -104 2q-6 41 -30 130q168 -3 211 -3q363 0 778 56q9 -45 34 -130q-90 -72 -285 -241
q-507 -444 -700 -605q-229 -192 -411 -330q176 10 344 10q43 0 308 -5q32 0 194 -1q173 -1 298 -4q5 -28 11 -66q9 -50 16 -79z" />
    <glyph glyph-name="bracketleft" unicode="[" horiz-adv-x="650" vert-adv-y="2457" 
d="M1037 1442q-66 -7 -164 -12q-91 -4 -176 -10l-781 -1795q82 -6 167 -10q93 -5 154 -12q-71 -76 -109 -122q-106 13 -411 28l881 2027q318 15 436 28q-2 -21 -2 -29q0 -51 5 -93z" />
    <glyph glyph-name="backslash" unicode="\" horiz-adv-x="715" vert-adv-y="2457" 
d="M381 1626q64 4 125 16q-5 -81 -11 -490l2 -318l4 -402q5 -265 9 -515q2 -94 10 -178q-16 -3 -63 -8q-16 -1 -58 -9q-1 60 -1 75q0 33 3 261q1 73 1 166q0 117 -4 628q-3 467 -5 555q-3 123 -12 219z" />
    <glyph glyph-name="bracketright" unicode="]" horiz-adv-x="650" vert-adv-y="2457" 
d="M578 1564q106 -13 412 -28l-882 -2027q-318 -15 -435 -28q1 20 1 28q0 50 -4 94q66 7 164 12q90 4 176 10l780 1795q-82 6 -167 10q-93 5 -153 12q71 76 108 122z" />
    <glyph glyph-name="asciicircum" unicode="^" horiz-adv-x="1024" vert-adv-y="2457" 
d="M338 751h-156l633 618h189l95 -618h-157l-84 504z" />
    <glyph glyph-name="underscore" unicode="_" horiz-adv-x="1024" vert-adv-y="2457" 
d="M-257 -136h1024l-57 -132h-1024z" />
    <glyph glyph-name="grave" unicode="`" horiz-adv-x="1024" vert-adv-y="2457" 
d="M723 1533q44 -65 138 -167q83 -88 145 -138q-73 -47 -104 -71q-118 90 -294 305q12 7 54 32q47 30 61 39z" />
    <glyph glyph-name="a" unicode="a" horiz-adv-x="868" vert-adv-y="2457" 
d="M529 -75q-41 9 -69 12q-48 3 -66 6l16 39l73 173q69 173 88 219q-146 -185 -225 -266q-168 -171 -278 -171q-58 0 -97 51q-30 40 -30 102q0 179 167 413q220 309 687 546q2 -10 16 -53q15 -47 21 -60q-160 -87 -220 -126q-132 -87 -268 -216q-148 -140 -234 -324
q-41 -88 -41 -144q0 -51 38 -51q49 0 223 179q157 161 324 417q70 107 141 233q19 -3 73 -16q50 -10 62 -13q-110 -184 -176 -337q-106 -262 -209 -567z" />
    <glyph glyph-name="b" unicode="b" horiz-adv-x="889" vert-adv-y="2457" 
d="M143 -23q-26 66 -54 108q-16 -30 -36 -79q-20 -47 -39 -91q-30 33 -107 100l24 52l105 223q224 483 451 941q95 194 115 231q13 -11 49 -42q11 -10 48 -37q-255 -459 -421 -817q163 174 251 245q96 76 172 115q74 38 142 38q66 0 99 -43q29 -37 29 -81q0 -139 -168 -335
q-134 -157 -380 -333q-146 -105 -280 -195zM96 102q243 131 479 338q137 121 214 235q59 87 59 134q0 34 -35 34q-77 0 -233 -126q-191 -154 -321 -342q-68 -98 -163 -273z" />
    <glyph glyph-name="c" unicode="c" horiz-adv-x="744" vert-adv-y="2457" 
d="M620 203q-254 -282 -452 -282q-93 0 -144 73q-42 60 -42 144q0 175 110 377q114 211 296 355q150 120 290 120q73 0 116 -44q44 -45 44 -111q0 -55 -34 -127q-10 -21 -33 -63q-54 24 -134 38q72 89 72 131q0 22 -16 37q-19 18 -46 18q-126 0 -312 -222
q-113 -136 -169 -270q-53 -124 -53 -221q0 -51 24 -83q22 -30 62 -30q98 0 225 125q52 51 102 125q17 -15 46 -43q18 -19 48 -47z" />
    <glyph glyph-name="d" unicode="d" horiz-adv-x="838" vert-adv-y="2457" 
d="M529 -96q-17 9 -55 27q-29 15 -53 26q22 62 49 152q39 130 62 200q-132 -167 -193 -224q-139 -130 -245 -130q-66 0 -110 53q-34 42 -34 102q0 160 129 359q128 196 330 359q90 73 280 194q7 -15 23 -53q12 -28 29 -64q-176 -111 -247 -168q-223 -176 -329 -355
q-89 -152 -89 -250q0 -21 10 -37q13 -20 36 -20q76 0 235 183q171 199 288 430q93 183 223 511q18 44 57 155q9 24 20 55q18 -11 58 -38q46 -31 64 -42q-72 -118 -284 -651q-148 -381 -240 -725z" />
    <glyph glyph-name="e" unicode="e" horiz-adv-x="743" vert-adv-y="2457" 
d="M638 282q-239 -372 -451 -372q-88 0 -147 81q-48 66 -48 170q0 200 135 416q146 231 345 350q128 76 233 76q50 0 83 -24q44 -33 44 -93q0 -85 -76 -182q-78 -99 -300 -237q-115 -72 -246 -128l-25 95q-64 -160 -64 -260q0 -67 29 -103q24 -31 58 -31q99 0 228 164
q36 46 108 161q14 -16 45 -41q14 -11 49 -42zM202 469q178 74 320 181q170 129 170 197q0 27 -30 27q-49 0 -135 -58q-86 -59 -193 -173q-69 -74 -132 -174z" />
    <glyph glyph-name="f" unicode="f" horiz-adv-x="709" vert-adv-y="2457" 
d="M850 757q-235 1 -365 -12q-128 -244 -308 -684q-162 -396 -233 -627q-12 8 -24 15q-64 41 -101 61q64 188 251 628q132 306 263 587q-57 -5 -240 -43q-21 94 -35 127q167 29 341 48q93 178 192 310q141 188 282 188q104 0 150 -135q21 -63 27 -206l-136 -40q6 62 6 102
q0 71 -23 109q-19 32 -51 32q-60 0 -154 -118q-47 -58 -143 -229q43 2 155 10q75 5 129 6q1 -27 13 -102z" />
    <glyph glyph-name="g" unicode="g" horiz-adv-x="822" vert-adv-y="2457" 
d="M891 908q-81 -146 -139 -277q-60 -135 -106 -265q-54 -153 -106 -310q-81 -237 -150 -349q-148 -240 -343 -240q-112 0 -180 76q-59 66 -59 180q0 65 27 132l135 16q-38 -103 -38 -150q0 -60 42 -103q31 -32 83 -32q108 0 199 118q85 110 164 335q29 85 85 258
q-233 -344 -414 -344q-69 0 -109 64q-28 45 -28 104q0 160 147 379q122 181 290 320q184 150 357 254q42 -56 85 -104l-58 -32q36 -12 54 -16q47 -10 62 -14zM748 925q-291 -164 -462 -375q-108 -134 -159 -245q-46 -100 -46 -165q0 -55 42 -55q110 0 348 342
q154 220 277 498z" />
    <glyph glyph-name="h" unicode="h" horiz-adv-x="872" vert-adv-y="2457" 
d="M548 -79q-63 33 -128 56q61 197 152 424q104 256 166 379q-152 -115 -439 -428q-143 -157 -198 -254q-26 -44 -70 -121q-14 7 -53 26q-43 20 -57 25q49 98 131 287q235 540 347 760q102 200 205 380q10 -6 19 -12q34 -22 63 -38q18 -11 33 -20l-24 -43
q-114 -201 -163 -296q-204 -396 -289 -588q186 200 349 348q93 85 281 245q36 -38 95 -97q-89 -146 -185 -377q-114 -271 -162 -416q-24 -73 -73 -240z" />
    <glyph glyph-name="i" unicode="i" horiz-adv-x="410" vert-adv-y="2457" 
d="M471 895q-60 -104 -222 -470q-183 -414 -207 -478q-73 58 -112 80q45 84 116 245q71 171 218 497q63 141 91 208q14 -10 57 -42q31 -23 59 -40zM623 1227q-24 -42 -55 -105q-38 -81 -64 -132q-15 10 -52 37q-19 13 -55 40q50 93 104 216l12 28q17 -12 57 -44
q25 -19 53 -40z" />
    <glyph glyph-name="j" unicode="j" horiz-adv-x="391" vert-adv-y="2457" 
d="M465 896q-39 -75 -97 -208l-317 -733q-124 -287 -208 -375q-123 -129 -284 -129q-148 0 -266 123q-57 60 -119 153q62 69 90 111q52 -87 97 -142q95 -115 206 -115q105 0 179 81q75 81 117 176l386 887l51 123q45 102 55 129q8 -6 15 -11q35 -26 63 -46q19 -13 32 -24z
M614 1223q-61 -121 -112 -244q-15 11 -57 44q-44 29 -57 37q53 99 114 252q15 -12 54 -45q20 -16 58 -44z" />
    <glyph glyph-name="k" unicode="k" horiz-adv-x="811" vert-adv-y="2457" 
d="M747 -226q-18 -5 -70 -22q-50 -18 -67 -24q-76 149 -177 404q-24 64 -104 305q-18 56 -40 116q-16 -40 -89 -202q-21 -47 -158 -369l-20 -46q-10 6 -20 13q-52 34 -102 61q117 201 639 1404l17 40q41 -30 116 -69l-19 -42l-74 -155l-94 -205q-87 -188 -118 -257
q102 70 302 185q127 72 255 126q25 -34 86 -106q-326 -115 -603 -322q41 -172 159 -458q106 -256 181 -377z" />
    <glyph glyph-name="l" unicode="l" horiz-adv-x="391" vert-adv-y="2457" 
d="M654 1342q-126 -234 -299 -646q-193 -462 -298 -790q-20 10 -110 53l-20 9q22 55 112 296q108 291 332 793q84 186 170 357q18 -13 52 -33q29 -18 61 -39z" />
    <glyph glyph-name="m" unicode="m" horiz-adv-x="1382" vert-adv-y="2457" 
d="M991 -113q-75 43 -124 60l28 67q113 267 181 412q43 90 142 285q-259 -231 -422 -402q-108 -116 -169 -210q-33 -52 -73 -128l-103 55l293 703q-97 -71 -255 -213q-179 -161 -242 -234q-83 -97 -194 -287q-76 40 -114 56q32 63 226 486q209 464 238 535q41 -27 125 -65
q-17 -41 -81 -173q-89 -185 -193 -396q119 119 221 210q66 59 281 241q81 70 123 118q26 -20 98 -66q-68 -109 -143 -277q-88 -199 -126 -290q137 146 202 210q114 111 293 264q115 98 156 134q56 -40 105 -73q-238 -423 -473 -1022z" />
    <glyph glyph-name="n" unicode="n" horiz-adv-x="874" vert-adv-y="2457" 
d="M511 -120q-72 38 -120 52q146 460 331 828q-106 -87 -244 -219q-210 -202 -310 -356q-69 -107 -121 -226q-42 17 -114 46q67 138 225 513q163 387 201 502q29 -14 111 -46l21 -8q-15 -38 -69 -163q-72 -164 -131 -290q201 218 573 518q35 -36 91 -89q-20 -39 -82 -156
q-54 -94 -227 -532q-76 -209 -135 -374z" />
    <glyph glyph-name="o" unicode="o" horiz-adv-x="767" vert-adv-y="2457" 
d="M579 1006q83 0 139 -60q51 -54 51 -160q0 -158 -99 -377q-120 -266 -264 -399q-125 -116 -245 -116q-86 0 -139 73q-45 61 -45 146q0 174 117 415q114 235 266 374q70 65 126 87q41 17 93 17zM554 873q-60 0 -140 -85q-114 -122 -205 -318q-98 -212 -98 -340
q0 -48 23 -78q19 -24 51 -24q113 0 262 233q75 118 131 263q57 145 57 249q0 100 -81 100z" />
    <glyph glyph-name="p" unicode="p" horiz-adv-x="832" vert-adv-y="2457" 
d="M135 -37q-15 29 -67 96q-122 -253 -267 -599q-44 31 -121 75q50 98 294 610q205 429 416 868l18 37q27 -19 114 -65q-16 -31 -109 -207l-38 -73q259 263 414 263q58 0 92 -40q29 -34 29 -87q0 -167 -215 -423q-165 -196 -375 -341q-74 -50 -185 -114zM84 86
q222 104 419 304q129 130 219 271q62 98 62 145q0 13 -9 24q-11 14 -29 14q-55 0 -190 -108q-188 -150 -321 -367q-67 -109 -151 -283z" />
    <glyph glyph-name="q" unicode="q" horiz-adv-x="876" vert-adv-y="2457" 
d="M1131 -165q-140 -39 -319 -111q-256 -104 -406 -215q-81 -60 -116 -109q-60 83 -87 101q39 75 154 352q133 320 214 488q-346 -382 -519 -382q-54 0 -86 38q-30 37 -30 92q0 163 167 384q239 315 789 597q4 -17 15 -68q4 -17 15 -67l-73 -36q71 -53 111 -75
q-94 -125 -262 -485q-77 -166 -196 -454q-59 -143 -95 -243q257 136 742 326q-3 -19 -10 -65q-5 -34 -8 -68zM824 892q-205 -114 -315.5 -194t-213.5 -189q-110 -117 -173 -233q-45 -85 -45 -134q0 -41 33 -41q50 0 157 89t242 241q121 136 223 293q41 64 92 168z" />
    <glyph glyph-name="r" unicode="r" horiz-adv-x="638" vert-adv-y="2457" 
d="M54 -42q-18 6 -64 26q-18 8 -67 24q160 317 436 992l20 -9q36 -16 69 -29q23 -9 40 -16q-12 -28 -48 -104q-36 -81 -54 -120q154 148 433 330l11 -13l34 -37q37 -43 49 -56q-141 -63 -346 -216q-256 -190 -376 -458q-81 -170 -137 -314z" />
    <glyph glyph-name="s" unicode="s" horiz-adv-x="1072" vert-adv-y="2457" 
d="M763 637q-18 12 -70 55q-41 33 -58 48q136 25 231 64q136 56 136 99q0 35 -93 35q-91 0 -232 -29q-148 -30 -261 -88q-91 -46 -91 -85q0 -47 116 -71q13 -3 227 -62q175 -48 232 -89q94 -68 94 -165q0 -117 -120 -207q-108 -81 -314 -127q-151 -33 -306 -33
q-344 0 -344 160q0 146 275 242q120 42 334 85q23 -23 92 -105q-41 -8 -53 -10q-520 -100 -520 -201q0 -66 217 -66q221 0 438 81q78 30 132 83q40 39 40 88q0 62 -86 101q-55 25 -117 42l-169 45q-174 46 -232 76q-87 45 -87 112q0 87 124 169q126 83 331 126
q171 35 305 35q100 0 156 -36q57 -37 57 -94q0 -67 -82 -130q-84 -64 -302 -148z" />
    <glyph glyph-name="t" unicode="t" horiz-adv-x="761" vert-adv-y="2457" 
d="M732 428q-421 -276 -640 -496q-17 14 -54 50q-33 28 -45 41q104 232 228 518l88 203l15 34q-20 -3 -79 -11q-52 -7 -75 -11q-4 18 -15 66q-8 32 -20 62q37 4 136 14q86 9 116 14q118 251 173 358q34 -23 57 -38q39 -25 57 -40q-80 -145 -135 -265l40 5l144 17l140 18
l57 7q17 -95 30 -131q-102 -2 -297 -24q-128 -14 -177 -20q-20 -40 -86 -191l-82 -184q-70 -159 -100 -225q155 124 234 183q57 42 194 135q16 -13 45 -42q13 -12 51 -47z" />
    <glyph glyph-name="u" unicode="u" horiz-adv-x="880" vert-adv-y="2457" 
d="M520 -68q-14 9 -65 43q-42 24 -57 35q16 39 108 238q91 197 117 253q-152 -190 -437 -439q-84 -75 -131 -130q-55 46 -106 87l-17 13q39 85 104 230q144 326 248 527q115 221 134 260q18 -11 62 -33q48 -25 70 -35q-144 -248 -233 -420q-69 -132 -203 -408
q395 315 763 869q68 -45 120 -70q-146 -231 -253 -467q-69 -149 -224 -553z" />
    <glyph glyph-name="v" unicode="v" horiz-adv-x="818" vert-adv-y="2457" 
d="M252 -71q-16 5 -60 21q-39 12 -53 17q2 48 14 253q3 59 3 173q0 381 -40 620q88 -15 155 -15q21 -150 21 -427q0 -115 -19 -363q315 516 701 843q20 -28 39 -51q33 -39 44 -55q-163 -144 -257 -243q-206 -216 -412 -533q-83 -129 -136 -240z" />
    <glyph glyph-name="w" unicode="w" horiz-adv-x="1361" vert-adv-y="2457" 
d="M1579 926q-214 -175 -483 -495q-115 -138 -266 -355q-53 -79 -93 -150q-39 23 -114 61q16 73 27 151q6 47 42 358l25 221l8 66q-171 -227 -346 -471q-126 -182 -198 -344q-11 4 -54 22q-10 5 -52 14q37 162 54 419q22 343 22 547v67q48 -14 143 -39q-2 -32 -12 -222
q-23 -325 -46 -479q127 167 336 465l99 138q86 132 106 161l107 -40q-28 -124 -45 -259q-19 -161 -43 -387q-11 -106 -19 -165q175 239 330 418q115 130 264 286q69 72 99 106q52 -50 109 -94z" />
    <glyph glyph-name="x" unicode="x" horiz-adv-x="980" vert-adv-y="2457" 
d="M1056 -227q-66 -32 -124 -81q-41 46 -234 304q-177 249 -242 358q-245 -301 -419 -459q-44 47 -105 100q224 197 451 475q-107 169 -253 503l16 10q38 24 65 42q17 11 31 20q55 -149 109 -258q77 -156 117 -211q190 232 314 469q10 -10 50 -55q13 -15 44 -42l-21 -33
q-166 -262 -318 -460q138 -208 205 -299q86 -117 158 -207q35 -36 70 -79q30 -35 61 -69z" />
    <glyph glyph-name="y" unicode="y" horiz-adv-x="927" vert-adv-y="2457" 
d="M219 -638q-60 43 -109 70q31 63 153 291q135 254 289 555q93 178 148 276q-24 -21 -47 -42q-122 -109 -190 -164.5t-247 -190.5q-103 -78 -149 -115q-51 35 -107 70q252 524 334 721q74 174 101 229q62 -59 112 -91q-29 -57 -110 -229q-65 -134 -205 -416l-30 -62
q89 56 268 197q184 142 353 344q92 111 147 198q35 -43 94 -104q-44 -68 -321 -595q-219 -422 -454 -884z" />
    <glyph glyph-name="z" unicode="z" horiz-adv-x="893" vert-adv-y="2457" 
d="M795 13q-76 4 -133 4q-369 0 -828 -97v17q0 45 -13 87q292 217 865 837q-136 -12 -299 -12q-127 0 -233 12q-8 42 -31 128q185 -21 323 -21q194 0 395 21q5 -11 24 -45q21 -39 28 -53q-106 -84 -245 -233q-292 -306 -592 -585q412 70 785 68q-27 -49 -46 -128z" />
    <glyph glyph-name="braceleft" unicode="{" horiz-adv-x="821" vert-adv-y="2457" 
d="M245 376q-133 65 -179 84q2 58 3 125q73 28 256 95l44 17q7 25 39 154q40 160 132 329q117 214 247 320q128 106 246 106q99 0 147 -98q11 -23 19 -57l-120 -87v12q0 38 -13 61q-22 40 -63 40q-85 0 -199 -132q-217 -251 -329 -740q-34 -13 -133 -44q-73 -23 -150 -47
q27 -12 118 -56q89 -42 116 -57q-165 -198 -249 -380q-95 -207 -95 -369q0 -116 83 -116q84 0 167 113l56 -127q-139 -115 -255 -115q-91 0 -139 83q-37 64 -37 154q0 206 119 457q65 138 169 275z" />
    <glyph glyph-name="bar" unicode="|" horiz-adv-x="1024" vert-adv-y="2457" 
d="M836 1365h143l-742 -1706h-143z" />
    <glyph glyph-name="braceright" unicode="}" horiz-adv-x="821" vert-adv-y="2457" 
d="M639 651q133 -64 179 -84q-2 -65 -3 -124q-72 -28 -256 -96l-44 -16q-6 -23 -39 -154q-40 -160 -132 -329q-117 -214 -246 -320t-247 -106q-99 0 -147 98q-11 22 -19 56l120 88v-14q0 -36 13 -59q21 -40 63 -40q85 0 199 132q216 251 329 740q36 13 133 43q38 12 151 48
q-28 12 -119 55q-89 43 -116 57q164 199 248 381q95 207 95 369q0 116 -82 116q-84 0 -167 -113l-56 127q137 115 255 115q91 0 139 -83q37 -64 37 -154q0 -206 -119 -457q-64 -135 -169 -276z" />
    <glyph glyph-name="asciitilde" unicode="~" vert-adv-y="2457" 
d="M597 1195l-61 55q77 82 131 127q126 106 248 106q78 0 200 -72q83 -48 112 -57q30 -9 59 -9q73 0 143 50q45 32 107 92l65 -51q-213 -228 -392 -228q-34 0 -82 17q-45 16 -67 29l-94 53q-67 39 -119 39q-103 0 -250 -151z" />
    <glyph glyph-name="Adieresis" unicode="&#xc4;" horiz-adv-x="1388" vert-adv-y="2457" 
d="M1203 -26q-62 -13 -148 -47q-3 60 -3 116q0 138 11 500l2 56q-70 -5 -182 -12q-136 -8 -305 -21q-34 -38 -190 -216q-172 -196 -408 -423q-41 63 -86 105q48 49 192 184q26 21 231 243q40 43 86 95q-48 -2 -181 -9q-132 -6 -178 -9q-14 80 -29 132l38 1q216 1 468 18
l63 75q388 456 544 686l19 -11q69 -41 96 -51q-32 -218 -44 -595l-3 -64q63 2 112 7q5 -16 15 -60q5 -23 20 -70q-37 2 -57 2q-15 0 -93 -3v-73l-2 -259q0 -138 12 -297zM1068 718q4 52 15 259q5 83 21 239q-40 -50 -133 -169q-213 -262 -285 -351q43 1 189 10q148 8 193 12
zM1046 1516q-14 15 -54 53q-41 40 -58 54q48 112 112 206q70 -75 109 -109q-33 -47 -53 -86q-21 -45 -56 -118zM1346 1516q-13 15 -53 53q-41 40 -59 54q48 112 112 206q70 -75 109 -109q-33 -47 -53 -86q-21 -45 -56 -118z" />
    <glyph glyph-name="Aring" unicode="&#xc5;" horiz-adv-x="1388" vert-adv-y="2457" 
d="M1203 -26q-62 -13 -148 -47q-3 60 -3 116q0 138 11 500l2 56q-70 -5 -182 -12q-136 -8 -305 -21q-34 -38 -190 -216q-172 -196 -408 -423q-41 63 -86 105q48 49 192 184q26 21 231 243q40 43 86 95q-48 -2 -181 -9q-132 -6 -178 -9q-14 80 -29 132l38 1q216 1 468 18
l63 75q388 456 544 686l19 -11q69 -41 96 -51q-32 -218 -44 -595l-3 -64q63 2 112 7q5 -16 15 -60q5 -23 20 -70q-37 2 -57 2q-15 0 -93 -3v-73l-2 -259q0 -138 12 -297zM1068 718q4 52 15 259q5 83 21 239q-40 -50 -133 -169q-213 -262 -285 -351q43 1 189 10q148 8 193 12
zM1298 1915q78 0 120 -63q22 -34 22 -84q0 -67 -39 -134q-42 -70 -110 -112q-54 -34 -118 -34q-67 0 -110 43q-38 39 -38 96q0 126 122 225q78 63 151 63zM1284 1820q-49 0 -106 -64q-53 -60 -53 -118q0 -25 16 -43q18 -20 44 -20q41 0 80 35q36 33 61 81q19 37 19 69
q0 60 -61 60z" />
    <glyph glyph-name="Ccedilla" unicode="&#xc7;" horiz-adv-x="1086" vert-adv-y="2457" 
d="M1057 462q-191 -265 -368 -406q-110 -86 -218 -117q-35 -9 -76 -17l-61 -114q94 -20 94 -103q0 -69 -52 -136q-93 -121 -290 -121q-27 0 -68 4q6 12 32 58q11 19 25 48q28 -4 47 -4q39 0 74 12q47 15 78 51q25 28 25 64q0 47 -53 60q-15 4 -57 8l97 176q-79 20 -125 68
q-90 95 -90 250q0 248 157 525q311 549 969 621q20 -85 44 -139q-385 -9 -652 -233q-182 -154 -296 -402q-89 -196 -89 -350q0 -95 46 -153q42 -53 112 -53q170 0 378 221q71 74 214 269q73 -65 103 -87z" />
    <glyph glyph-name="Eacute" unicode="&#xc9;" horiz-adv-x="1209" vert-adv-y="2457" 
d="M1145 11q-106 3 -157 3q-250 0 -658 -20q-265 -13 -444 -36q-12 62 -34 127l28 3q125 13 164 15l309 718q-18 -2 -61 -3q-6 0 -42 -2l-23 -1q-7 48 -37 126q49 -1 85 -1q30 0 131 4l127 295h-29q-50 0 -79 -5q-8 46 -33 139q235 -6 318 -6q233 0 403 6q18 -67 48 -135
q-169 8 -271 8q-144 0 -228 -3l-129 -299q291 7 556 28q10 -59 35 -125l-61 -2l-177 -6l-201 -7q-160 -5 -200 -7l-306 -716l80 5q489 27 734 27q34 0 107 -1q32 -101 45 -129zM1244 1743q-237 -85 -477 -245q-25 73 -54 116q216 140 486 257q17 -75 45 -128z" />
    <glyph glyph-name="Ntilde" unicode="&#xd1;" horiz-adv-x="1371" vert-adv-y="2457" 
d="M954 -63q-13 7 -49 32q-18 12 -47 25q2 19 2 29q0 42 -34 141q-160 449 -229 920l-394 -888l-40 -89l-26 -67q-32 -76 -41 -103q-47 41 -111 74l482 1095q62 151 73 182q10 34 15 96q28 6 141 50q4 -298 91 -671q91 -383 152 -525l208 463q144 319 199 448
q95 219 114 262q17 -14 60 -51q24 -20 49 -36q-104 -216 -259 -562q-338 -752 -356 -825zM1479 1667q-119 -90 -230 -90q-66 0 -144 30q-52 20 -66 24q-30 10 -70 10q-78 0 -145 -61q-37 74 -58 109q95 78 205 78q52 0 135 -31q99 -36 145 -36q79 0 172 69q11 -41 56 -102z
" />
    <glyph glyph-name="Odieresis" unicode="&#xd6;" horiz-adv-x="1373" vert-adv-y="2457" 
d="M1010 1381q174 0 287 -111q118 -116 118 -322q0 -244 -140 -504q-142 -266 -358 -410q-173 -114 -363 -114q-120 0 -222 55q-110 60 -161 172q-47 102 -47 222q0 261 140 509q146 258 398 402q175 101 348 101zM985 1252q-149 0 -308 -107q-200 -133 -323 -384
q-99 -202 -99 -386q0 -165 104 -253q83 -71 208 -71q159 0 315 116q191 141 310 409q83 186 83 362q0 164 -89 247q-71 67 -201 67zM984 1516q-14 15 -54 53q-41 40 -59 54q48 112 113 206q69 -75 109 -109q-34 -47 -53 -86q-22 -45 -56 -118zM1284 1516q-14 15 -54 53
q-41 40 -58 54q48 112 112 206q70 -75 109 -109q-34 -47 -53 -86q-21 -45 -56 -118z" />
    <glyph glyph-name="Udieresis" unicode="&#xdc;" horiz-adv-x="1260" vert-adv-y="2457" 
d="M831 -74q-64 53 -109 85q40 92 124 278q86 191 221 510q-191 -235 -497 -507q-134 -123 -468 -366q-10 10 -51 60q-35 34 -49 48q42 91 229 544l117 287q161 385 224 545q17 -17 58 -51q36 -31 53 -44q-161 -341 -491 -1161q118 78 373 302q227 197 425 426
q157 180 335 512q44 -47 105 -100l-23 -51q-116 -257 -220 -496q-103 -234 -255 -576q-44 -97 -101 -245zM914 1516q-14 15 -54 53q-41 40 -58 54q47 112 112 206q70 -75 109 -109q-34 -47 -53 -86q-22 -45 -56 -118zM1214 1516q-14 15 -54 53q-40 40 -58 54q48 112 112 206
q70 -75 109 -109q-33 -47 -53 -86q-21 -45 -56 -118z" />
    <glyph glyph-name="aacute" unicode="&#xe1;" horiz-adv-x="868" vert-adv-y="2457" 
d="M529 -75q-41 9 -69 12q-48 3 -66 6l16 39l73 173q69 173 88 219q-146 -185 -225 -266q-168 -171 -278 -171q-58 0 -97 51q-30 40 -30 102q0 179 167 413q220 309 687 546q2 -10 16 -53q15 -47 21 -60q-160 -87 -220 -126q-132 -87 -268 -216q-148 -140 -234 -324
q-41 -88 -41 -144q0 -51 38 -51q49 0 223 179q157 161 324 417q70 107 141 233q19 -3 73 -16q50 -10 62 -13q-110 -184 -176 -337q-106 -262 -209 -567zM1144 1402q-237 -85 -478 -245q-24 73 -54 116q217 140 486 257q17 -75 46 -128z" />
    <glyph glyph-name="agrave" unicode="&#xe0;" horiz-adv-x="868" vert-adv-y="2457" 
d="M529 -75q-41 9 -69 12q-48 3 -66 6l16 39l73 173q69 173 88 219q-146 -185 -225 -266q-168 -171 -278 -171q-58 0 -97 51q-30 40 -30 102q0 179 167 413q220 309 687 546q2 -10 16 -53q15 -47 21 -60q-160 -87 -220 -126q-132 -87 -268 -216q-148 -140 -234 -324
q-41 -88 -41 -144q0 -51 38 -51q49 0 223 179q157 161 324 417q70 107 141 233q19 -3 73 -16q50 -10 62 -13q-110 -184 -176 -337q-106 -262 -209 -567zM673 1533q44 -65 138 -167q83 -88 145 -138q-73 -47 -104 -71q-118 90 -294 305q12 7 54 32q47 30 61 39z" />
    <glyph glyph-name="acircumflex" unicode="&#xe2;" horiz-adv-x="868" vert-adv-y="2457" 
d="M529 -75q-41 9 -69 12q-48 3 -66 6l16 39l73 173q69 173 88 219q-146 -185 -225 -266q-168 -171 -278 -171q-58 0 -97 51q-30 40 -30 102q0 179 167 413q220 309 687 546q2 -10 16 -53q15 -47 21 -60q-160 -87 -220 -126q-132 -87 -268 -216q-148 -140 -234 -324
q-41 -88 -41 -144q0 -51 38 -51q49 0 223 179q157 161 324 417q70 107 141 233q19 -3 73 -16q50 -10 62 -13q-110 -184 -176 -337q-106 -262 -209 -567zM1067 1215q-35 -22 -96 -68q-80 91 -139 240q-126 -140 -279 -240l-12 13q-25 27 -71 73q224 106 397 370
q66 -246 200 -388z" />
    <glyph glyph-name="adieresis" unicode="&#xe4;" horiz-adv-x="868" vert-adv-y="2457" 
d="M529 -75q-41 9 -69 12q-48 3 -66 6l16 39l73 173q69 173 88 219q-146 -185 -225 -266q-168 -171 -278 -171q-58 0 -97 51q-30 40 -30 102q0 179 167 413q220 309 687 546q2 -10 16 -53q15 -47 21 -60q-160 -87 -220 -126q-132 -87 -268 -216q-148 -140 -234 -324
q-41 -88 -41 -144q0 -51 38 -51q49 0 223 179q157 161 324 417q70 107 141 233q19 -3 73 -16q50 -10 62 -13q-110 -184 -176 -337q-106 -262 -209 -567zM651 1171q-13 16 -53 54q-41 40 -59 54q48 112 112 206q70 -75 109 -109q-33 -47 -53 -86q-21 -45 -56 -119zM952 1171
q-14 16 -54 54q-41 40 -59 54q48 112 113 206q69 -75 109 -109q-34 -47 -53 -86q-22 -45 -56 -119z" />
    <glyph glyph-name="atilde" unicode="&#xe3;" horiz-adv-x="868" vert-adv-y="2457" 
d="M529 -75q-41 9 -69 12q-48 3 -66 6l16 39l73 173q69 173 88 219q-146 -185 -225 -266q-168 -171 -278 -171q-58 0 -97 51q-30 40 -30 102q0 179 167 413q220 309 687 546q2 -10 16 -53q15 -47 21 -60q-160 -87 -220 -126q-132 -87 -268 -216q-148 -140 -234 -324
q-41 -88 -41 -144q0 -51 38 -51q49 0 223 179q157 161 324 417q70 107 141 233q19 -3 73 -16q50 -10 62 -13q-110 -184 -176 -337q-106 -262 -209 -567zM1102 1329q-33 -37 -59 -54q-51 -33 -120 -33q-54 0 -115 27q-85 37 -126 37q-39 0 -81 -29q-13 -9 -41 -33
q-16 55 -54 105q42 34 68 48q52 30 113 30q48 0 98 -18q13 -4 80 -35q27 -12 59 -12q70 0 123 65q19 -66 55 -98z" />
    <glyph glyph-name="aring" unicode="&#xe5;" horiz-adv-x="868" vert-adv-y="2457" 
d="M529 -75q-41 9 -69 12q-48 3 -66 6l16 39l73 173q69 173 88 219q-146 -185 -225 -266q-168 -171 -278 -171q-58 0 -97 51q-30 40 -30 102q0 179 167 413q220 309 687 546q2 -10 16 -53q15 -47 21 -60q-160 -87 -220 -126q-132 -87 -268 -216q-148 -140 -234 -324
q-41 -88 -41 -144q0 -51 38 -51q49 0 223 179q157 161 324 417q70 107 141 233q19 -3 73 -16q50 -10 62 -13q-110 -184 -176 -337q-106 -262 -209 -567zM855 1560q77 0 120 -63q22 -34 22 -84q0 -67 -39 -134q-42 -71 -110 -112q-54 -34 -118 -34q-67 0 -109 43
q-39 39 -39 96q0 126 122 225q78 63 151 63zM841 1465q-49 0 -106 -64q-53 -60 -53 -118q0 -25 16 -43q18 -20 43 -20q42 0 81 35q36 33 61 81q19 38 19 69q0 60 -61 60z" />
    <glyph glyph-name="ccedilla" unicode="&#xe7;" horiz-adv-x="744" vert-adv-y="2457" 
d="M252 -69l-65 -111q90 -6 90 -88q0 -66 -44 -128q-51 -71 -157 -101q-56 -16 -118 -16q-28 0 -62 6q35 42 52 97q25 -4 43 -4q37 0 70 11q43 14 72 46q27 28 27 63q0 57 -106 61l89 155q-50 13 -75 27.5t-45 44.5q-41 60 -41 143q0 175 110 378q115 211 296 355
q151 120 291 120q73 0 116 -44q44 -45 44 -111q0 -55 -35 -127q-9 -21 -33 -63q-65 25 -134 38q73 89 73 131q0 22 -16 37q-19 18 -46 18q-127 0 -312 -223q-114 -136 -170 -269q-53 -125 -53 -222q0 -51 24 -83q22 -30 62 -30q98 0 225 125q53 52 102 126q14 -12 45 -43
q18 -19 50 -48q-200 -221 -369 -271z" />
    <glyph glyph-name="eacute" unicode="&#xe9;" horiz-adv-x="743" vert-adv-y="2457" 
d="M638 282q-239 -372 -451 -372q-88 0 -147 81q-48 66 -48 170q0 200 135 416q146 231 345 350q128 76 233 76q50 0 83 -24q44 -33 44 -93q0 -85 -76 -182q-78 -99 -300 -237q-115 -72 -246 -128l-25 95q-64 -160 -64 -260q0 -67 29 -103q24 -31 58 -31q99 0 228 164
q36 46 108 161q14 -16 45 -41q14 -11 49 -42zM202 469q178 74 320 181q170 129 170 197q0 27 -30 27q-49 0 -135 -58q-86 -59 -193 -173q-69 -74 -132 -174zM1068 1402q-237 -85 -478 -245q-24 73 -54 116q217 140 486 257q17 -75 46 -128z" />
    <glyph glyph-name="egrave" unicode="&#xe8;" horiz-adv-x="743" vert-adv-y="2457" 
d="M638 282q-239 -372 -451 -372q-88 0 -147 81q-48 66 -48 170q0 200 135 416q146 231 345 350q128 76 233 76q50 0 83 -24q44 -33 44 -93q0 -85 -76 -182q-78 -99 -300 -237q-115 -72 -246 -128l-25 95q-64 -160 -64 -260q0 -67 29 -103q24 -31 58 -31q99 0 228 164
q36 46 108 161q14 -16 45 -41q14 -11 49 -42zM202 469q178 74 320 181q170 129 170 197q0 27 -30 27q-49 0 -135 -58q-86 -59 -193 -173q-69 -74 -132 -174zM569 1533q44 -65 138 -167q83 -88 145 -138q-73 -47 -104 -71q-118 90 -294 305q12 7 54 32q47 30 61 39z" />
    <glyph glyph-name="ecircumflex" unicode="&#xea;" horiz-adv-x="743" vert-adv-y="2457" 
d="M638 282q-239 -372 -451 -372q-88 0 -147 81q-48 66 -48 170q0 200 135 416q146 231 345 350q128 76 233 76q50 0 83 -24q44 -33 44 -93q0 -85 -76 -182q-78 -99 -300 -237q-115 -72 -246 -128l-25 95q-64 -160 -64 -260q0 -67 29 -103q24 -31 58 -31q99 0 228 164
q36 46 108 161q14 -16 45 -41q14 -11 49 -42zM202 469q178 74 320 181q170 129 170 197q0 27 -30 27q-49 0 -135 -58q-86 -59 -193 -173q-69 -74 -132 -174zM970 1215q-35 -22 -96 -68q-80 91 -139 240q-126 -140 -279 -240l-12 13q-25 27 -71 73q224 106 397 370
q66 -246 200 -388z" />
    <glyph glyph-name="edieresis" unicode="&#xeb;" horiz-adv-x="743" vert-adv-y="2457" 
d="M638 282q-239 -372 -451 -372q-88 0 -147 81q-48 66 -48 170q0 200 135 416q146 231 345 350q128 76 233 76q50 0 83 -24q44 -33 44 -93q0 -85 -76 -182q-78 -99 -300 -237q-115 -72 -246 -128l-25 95q-64 -160 -64 -260q0 -67 29 -103q24 -31 58 -31q99 0 228 164
q36 46 108 161q14 -16 45 -41q14 -11 49 -42zM202 469q178 74 320 181q170 129 170 197q0 27 -30 27q-49 0 -135 -58q-86 -59 -193 -173q-69 -74 -132 -174zM575 1171q-13 16 -53 54q-41 40 -59 54q48 112 112 206q70 -75 109 -109q-33 -47 -53 -86q-21 -45 -56 -119z
M876 1171q-14 16 -54 54q-41 40 -59 54q48 112 113 206q69 -75 109 -109q-34 -47 -53 -86q-22 -45 -56 -119z" />
    <glyph glyph-name="iacute" unicode="&#xed;" horiz-adv-x="410" vert-adv-y="2457" 
d="M471 895q-60 -104 -222 -470q-183 -414 -207 -478q-73 58 -112 80q45 84 116 245q71 171 218 497q63 141 91 208q14 -10 57 -42q31 -23 59 -40zM858 1403q-200 -84 -429 -243q-18 45 -59 113q170 122 431 257q23 -73 57 -127z" />
    <glyph glyph-name="igrave" unicode="&#xec;" horiz-adv-x="410" vert-adv-y="2457" 
d="M471 895q-60 -104 -222 -470q-183 -414 -207 -478q-73 58 -112 80q45 84 116 245q71 171 218 497q63 141 91 208q14 -10 57 -42q31 -23 59 -40zM335 1533q44 -65 138 -167q83 -88 145 -138q-73 -47 -104 -71q-118 90 -294 305q12 7 54 32q47 30 61 39z" />
    <glyph glyph-name="icircumflex" unicode="&#xee;" horiz-adv-x="410" vert-adv-y="2457" 
d="M471 895q-60 -104 -222 -470q-183 -414 -207 -478q-73 58 -112 80q45 84 116 245q71 171 218 497q63 141 91 208q14 -10 57 -42q31 -23 59 -40zM769 1215q-35 -22 -96 -68q-80 91 -139 240q-126 -140 -279 -240l-12 13q-25 27 -71 73q224 106 397 370q66 -246 200 -388z
" />
    <glyph glyph-name="idieresis" unicode="&#xef;" horiz-adv-x="410" vert-adv-y="2457" 
d="M471 895q-60 -104 -222 -470q-183 -414 -207 -478q-73 58 -112 80q45 84 116 245q71 171 218 497q63 141 91 208q14 -10 57 -42q31 -23 59 -40zM385 1171q-14 16 -54 54q-41 40 -58 54q48 112 112 206q70 -75 109 -109q-34 -47 -53 -86q-22 -45 -56 -119zM651 1171
q-13 16 -53 54q-41 40 -59 54q48 112 112 206q70 -75 109 -109q-33 -47 -53 -86q-21 -45 -56 -119z" />
    <glyph glyph-name="ntilde" unicode="&#xf1;" horiz-adv-x="874" vert-adv-y="2457" 
d="M511 -120q-72 38 -120 52q146 460 331 828q-106 -87 -244 -219q-210 -202 -310 -356q-69 -107 -121 -226q-42 17 -114 46q67 138 225 513q163 387 201 502q29 -14 111 -46l21 -8q-15 -38 -69 -163q-72 -164 -131 -290q201 218 573 518q35 -36 91 -89q-20 -39 -82 -156
q-54 -94 -227 -532q-76 -209 -135 -374zM1030 1329q-33 -37 -59 -54q-51 -33 -120 -33q-54 0 -115 27q-85 37 -126 37q-39 0 -81 -29q-13 -9 -41 -33q-16 55 -54 105q42 34 68 48q52 30 113 30q48 0 98 -18q13 -4 80 -35q27 -12 59 -12q70 0 123 65q19 -66 55 -98z" />
    <glyph glyph-name="oacute" unicode="&#xf3;" horiz-adv-x="767" vert-adv-y="2457" 
d="M579 1006q83 0 139 -60q51 -54 51 -160q0 -158 -99 -377q-120 -266 -264 -399q-125 -116 -245 -116q-86 0 -139 73q-45 61 -45 146q0 174 117 415q114 235 266 374q70 65 126 87q41 17 93 17zM554 873q-60 0 -140 -85q-114 -122 -205 -318q-98 -212 -98 -340
q0 -48 23 -78q19 -24 51 -24q113 0 262 233q75 118 131 263q57 145 57 249q0 100 -81 100zM1066 1402q-237 -85 -478 -245q-24 73 -54 116q217 140 486 257q17 -75 46 -128z" />
    <glyph glyph-name="ograve" unicode="&#xf2;" horiz-adv-x="767" vert-adv-y="2457" 
d="M579 1006q83 0 139 -60q51 -54 51 -160q0 -158 -99 -377q-120 -266 -264 -399q-125 -116 -245 -116q-86 0 -139 73q-45 61 -45 146q0 174 117 415q114 235 266 374q70 65 126 87q41 17 93 17zM554 873q-60 0 -140 -85q-114 -122 -205 -318q-98 -212 -98 -340
q0 -48 23 -78q19 -24 51 -24q113 0 262 233q75 118 131 263q57 145 57 249q0 100 -81 100zM554 1533q44 -65 138 -167q83 -88 145 -138q-73 -47 -104 -71q-118 90 -294 305q12 7 54 32q47 30 61 39z" />
    <glyph glyph-name="ocircumflex" unicode="&#xf4;" horiz-adv-x="767" vert-adv-y="2457" 
d="M579 1006q83 0 139 -60q51 -54 51 -160q0 -158 -99 -377q-120 -266 -264 -399q-125 -116 -245 -116q-86 0 -139 73q-45 61 -45 146q0 174 117 415q114 235 266 374q70 65 126 87q41 17 93 17zM554 873q-60 0 -140 -85q-114 -122 -205 -318q-98 -212 -98 -340
q0 -48 23 -78q19 -24 51 -24q113 0 262 233q75 118 131 263q57 145 57 249q0 100 -81 100zM927 1215q-35 -22 -96 -68q-80 91 -139 240q-126 -140 -279 -240l-12 13q-25 27 -71 73q224 106 397 370q66 -246 200 -388z" />
    <glyph glyph-name="odieresis" unicode="&#xf6;" horiz-adv-x="767" vert-adv-y="2457" 
d="M579 1006q83 0 139 -60q51 -54 51 -160q0 -158 -99 -377q-120 -266 -264 -399q-125 -116 -245 -116q-86 0 -139 73q-45 61 -45 146q0 174 117 415q114 235 266 374q70 65 126 87q41 17 93 17zM554 873q-60 0 -140 -85q-114 -122 -205 -318q-98 -212 -98 -340
q0 -48 23 -78q19 -24 51 -24q113 0 262 233q75 118 131 263q57 145 57 249q0 100 -81 100zM559 1171q-13 16 -53 54q-41 40 -59 54q48 112 112 206q70 -75 109 -109q-33 -47 -53 -86q-21 -45 -56 -119zM860 1171q-14 16 -54 54q-41 40 -59 54q48 112 113 206
q69 -75 109 -109q-34 -47 -53 -86q-22 -45 -56 -119z" />
    <glyph glyph-name="otilde" unicode="&#xf5;" horiz-adv-x="767" vert-adv-y="2457" 
d="M579 1006q83 0 139 -60q51 -54 51 -160q0 -158 -99 -377q-120 -266 -264 -399q-125 -116 -245 -116q-86 0 -139 73q-45 61 -45 146q0 174 117 415q114 235 266 374q70 65 126 87q41 17 93 17zM554 873q-60 0 -140 -85q-114 -122 -205 -318q-98 -212 -98 -340
q0 -48 23 -78q19 -24 51 -24q113 0 262 233q75 118 131 263q57 145 57 249q0 100 -81 100zM976 1329q-33 -37 -59 -54q-51 -33 -120 -33q-54 0 -115 27q-85 37 -126 37q-39 0 -81 -29q-13 -9 -41 -33q-16 55 -54 105q42 34 68 48q52 30 113 30q48 0 98 -18q13 -4 80 -35
q27 -12 59 -12q70 0 123 65q19 -66 55 -98z" />
    <glyph glyph-name="uacute" unicode="&#xfa;" horiz-adv-x="880" vert-adv-y="2457" 
d="M520 -68q-14 9 -65 43q-42 24 -57 35q16 39 108 238q91 197 117 253q-152 -190 -437 -439q-84 -75 -131 -130q-55 46 -106 87l-17 13q39 85 104 230q144 326 248 527q115 221 134 260q18 -11 62 -33q48 -25 70 -35q-144 -248 -233 -420q-69 -132 -203 -408
q395 315 763 869q68 -45 120 -70q-146 -231 -253 -467q-69 -149 -224 -553zM1178 1402q-237 -85 -478 -245q-24 73 -54 116q217 140 486 257q17 -75 46 -128z" />
    <glyph glyph-name="ugrave" unicode="&#xf9;" horiz-adv-x="880" vert-adv-y="2457" 
d="M520 -68q-14 9 -65 43q-42 24 -57 35q16 39 108 238q91 197 117 253q-152 -190 -437 -439q-84 -75 -131 -130q-55 46 -106 87l-17 13q39 85 104 230q144 326 248 527q115 221 134 260q18 -11 62 -33q48 -25 70 -35q-144 -248 -233 -420q-69 -132 -203 -408
q395 315 763 869q68 -45 120 -70q-146 -231 -253 -467q-69 -149 -224 -553zM604 1533q44 -65 138 -167q83 -88 145 -138q-73 -47 -104 -71q-118 90 -294 305q12 7 54 32q47 30 61 39z" />
    <glyph glyph-name="ucircumflex" unicode="&#xfb;" horiz-adv-x="880" vert-adv-y="2457" 
d="M520 -68q-14 9 -65 43q-42 24 -57 35q16 39 108 238q91 197 117 253q-152 -190 -437 -439q-84 -75 -131 -130q-55 46 -106 87l-17 13q39 85 104 230q144 326 248 527q115 221 134 260q18 -11 62 -33q48 -25 70 -35q-144 -248 -233 -420q-69 -132 -203 -408
q395 315 763 869q68 -45 120 -70q-146 -231 -253 -467q-69 -149 -224 -553zM1066 1215q-35 -22 -96 -68q-80 91 -139 240q-126 -140 -279 -240l-12 13q-25 27 -71 73q224 106 397 370q66 -246 200 -388z" />
    <glyph glyph-name="udieresis" unicode="&#xfc;" horiz-adv-x="880" vert-adv-y="2457" 
d="M520 -68q-14 9 -65 43q-42 24 -57 35q16 39 108 238q91 197 117 253q-152 -190 -437 -439q-84 -75 -131 -130q-55 46 -106 87l-17 13q39 85 104 230q144 326 248 527q115 221 134 260q18 -11 62 -33q48 -25 70 -35q-144 -248 -233 -420q-69 -132 -203 -408
q395 315 763 869q68 -45 120 -70q-146 -231 -253 -467q-69 -149 -224 -553zM644 1171q-13 16 -53 54q-41 40 -59 54q48 112 112 206q70 -75 109 -109q-33 -47 -53 -86q-21 -45 -56 -119zM945 1171q-14 16 -54 54q-41 40 -59 54q48 112 113 206q69 -75 109 -109
q-34 -47 -53 -86q-22 -45 -56 -119z" />
    <glyph glyph-name="dagger" unicode="&#x2020;" horiz-adv-x="1229" vert-adv-y="2457" 
d="M908 970h51h50q116 0 270 9l-11 -22q-25 -53 -44 -108q-220 7 -366 8q-301 -680 -450 -1140q-40 24 -127 70q25 61 127 330q158 415 308 741q-143 0 -386 -9q48 61 75 130q150 -6 332 -8l30 -1q98 223 201 431q19 -15 50 -36q33 -23 60 -44q-88 -166 -170 -351z" />
    <glyph glyph-name="degree" unicode="&#xb0;" horiz-adv-x="799" vert-adv-y="2457" 
d="M611 1401q156 0 265 -120q91 -100 91 -234q0 -157 -118 -263q-103 -93 -244 -93q-153 0 -260 109q-102 103 -102 249q0 153 118 259q103 93 250 93zM601 1296q-109 0 -187 -84q-64 -70 -64 -166q0 -101 71 -173q75 -77 184 -77q114 0 191 84q64 71 64 168q0 107 -83 182
q-73 66 -176 66z" />
    <glyph glyph-name="cent" unicode="&#xa2;" vert-adv-y="2457" 
d="M1074 1202q55 -4 81 -16q36 -17 58 -53q23 -38 23 -82q0 -57 -37 -131q-10 -20 -34 -63q-54 24 -133 38q74 89 74 134q0 49 -87 53l-369 -813q58 22 129 83q77 68 135 154q17 -16 44 -44q18 -18 48 -47q-237 -262 -417 -280q-39 -93 -73 -185q-18 3 -59 11q-43 7 -57 9
q52 95 84 167q-42 8 -63 22q-88 55 -88 184q0 176 117 384q118 210 302 355q98 78 206 108q60 129 80 193q55 -9 125 -17q-37 -52 -89 -164zM537 256l353 783q-119 -79 -236 -230q-98 -127 -147 -252q-43 -110 -43 -194q0 -91 73 -107z" />
    <glyph glyph-name="sterling" unicode="&#xa3;" vert-adv-y="2457" 
d="M1197 -1q-158 28 -443 28q-193 0 -409 -26q-151 -18 -247 -49l-8 15q-15 30 -48 85q167 110 266 232q104 131 198 370q-134 -8 -263 -45q3 54 3 96q0 21 -3 43q77 13 279 33l39 4q74 186 112 261q162 319 339 319q92 0 154 -87q70 -101 117 -321q-35 -3 -134 -32
q-40 318 -152 318q-61 0 -136 -118q-38 -58 -134 -274l-23 -53q101 8 203 8q40 0 87 -1q20 -101 32 -135q-65 8 -125 8q-79 0 -248 -8q-81 -200 -152 -319q-83 -137 -212 -252q277 49 657 49q142 0 269 -12q-13 -51 -18 -137z" />
    <glyph glyph-name="section" unicode="&#xa7;" vert-adv-y="2457" 
d="M1318 1077q-27 13 -31 17q-29 15 -93 46q93 50 93 81q0 37 -89 37q-96 0 -235 -29q-165 -35 -263 -87q-90 -48 -90 -85q0 -50 131 -76q11 -2 85 -20q36 -8 80 -18q219 -51 300 -84q66 -27 112 -80q43 -49 43 -111q0 -166 -261 -269q-175 -69 -382 -78q82 -14 140 -44
q143 -73 143 -188q0 -113 -119 -203q-108 -81 -314 -127q-151 -33 -306 -33q-344 0 -344 161q0 98 117 174q38 25 124 60q35 -32 115 -90q-40 -13 -91 -30q-135 -43 -135 -101q0 -69 209 -69q229 0 445 82q78 29 132 82q40 39 40 87q0 66 -96 105q-74 30 -319 88
q-209 49 -259 72q-89 41 -89 122q0 164 308 275q164 60 402 101q-121 29 -188 48q-174 47 -174 144q0 83 124 166q121 80 331 126q158 35 298 35q107 0 163 -36q57 -37 57 -95q0 -79 -114 -156zM849 837q18 -26 28 -44q25 -43 33 -55q-666 -103 -666 -261q0 -76 253 -76
q295 0 540 85q88 30 150 83q45 39 45 88q0 64 -96 102q-77 30 -287 78z" />
    <glyph glyph-name="bullet" unicode="&#x2022;" vert-adv-y="2457" 
d="M788 978q113 0 196 -83q84 -83 84 -201t-83 -201t-201 -83q-116 0 -199 82q-85 84 -85 202q0 121 84 202q86 82 204 82z" />
    <glyph glyph-name="paragraph" unicode="&#xb6;" vert-adv-y="2457" 
d="M654 772q-107 2 -159 20q-83 28 -127 92q-37 54 -37 111q0 111 112 219q142 137 382 161q59 7 297 12q281 7 392 20q-2 -15 -2 -42q0 -63 2 -80q-58 -6 -176 -13l-14 -34l-128 -296l-166 -396l-148 -351q-152 -370 -226 -542q-44 37 -54 44q-38 29 -49 39l17 38
q125 293 326 771l129 309l125 301l45 109q-76 -1 -200 -6l-17 -39l-114 -266l-168 -400l-149 -353q-153 -373 -228 -547q-44 37 -54 44q-38 29 -49 39l17 39q130 305 335 792l75 180z" />
    <glyph glyph-name="germandbls" unicode="&#xdf;" horiz-adv-x="1267" vert-adv-y="2457" 
d="M-148 -557q-34 19 -65 37q-5 2 -67 34l24 58q219 542 355 836q236 512 426 727q181 206 349 206q83 0 134 -56q47 -52 47 -117q0 -86 -56 -177q-51 -83 -203 -199q-70 -53 -70 -80q0 -40 92 -77q194 -77 260 -114q106 -62 106 -162q0 -105 -97 -193q-103 -93 -296 -144
q-133 -36 -271 -36q-151 0 -229 51q-67 44 -67 109q0 130 229 223q158 65 333 96q49 -65 88 -105q-164 -26 -319 -76q-197 -64 -197 -133q0 -56 149 -56q216 0 388 83q159 76 159 155q0 56 -70 99q-29 18 -157 69q-153 60 -199 90q-61 41 -61 95q0 57 70 126q16 16 139 121
q136 115 136 203q0 31 -18 50q-20 23 -56 23q-92 0 -208 -133q-139 -162 -285 -447q-250 -486 -493 -1186z" />
    <glyph glyph-name="registered" unicode="&#xae;" horiz-adv-x="1751" vert-adv-y="2457" 
d="M1224 239l-12 14q-169 211 -340 472l-154 -361q-38 -94 -51 -125q-55 33 -102 55l326 742q-85 -4 -185 -36q-7 36 -27 99q221 46 409 46q131 0 205 -34q89 -42 89 -123q0 -177 -395 -256q48 -75 158 -218q112 -143 184 -210q-54 -32 -105 -65zM909 809q125 19 223 56
q128 49 128 111q0 72 -183 72q-28 0 -66 -4zM983 1418q199 0 378 -109q180 -110 274 -294q81 -157 81 -335q0 -306 -218 -523q-105 -104 -240 -160q-137 -56 -285 -56q-210 0 -388 109q-179 109 -274 294q-81 157 -81 334q0 211 109 388q108 175 297 271q158 81 347 81z
M966 1320q-172 0 -326 -95t-235 -255q-70 -136 -70 -290q0 -265 188 -453q187 -188 450 -188q264 0 451 188q187 187 187 451q0 183 -94 337q-92 151 -254 235q-135 70 -297 70z" />
    <glyph glyph-name="copyright" unicode="&#xa9;" horiz-adv-x="1751" vert-adv-y="2457" 
d="M1252 582q-235 -346 -452 -346q-100 0 -154 77q-41 58 -41 141q0 150 91 307q194 336 613 373q18 -67 43 -114q-208 0 -363 -100q-123 -79 -201 -230q-59 -115 -59 -218q0 -124 87 -124q93 0 211 126q66 70 135 180q47 -42 90 -72zM983 1418q199 0 378 -109
q180 -110 274 -294q81 -157 81 -335q0 -306 -218 -523q-105 -104 -240 -160q-137 -56 -285 -56q-210 0 -388 109q-179 109 -274 294q-81 157 -81 334q0 211 109 388q108 175 297 271q158 81 347 81zM966 1320q-172 0 -326 -95t-235 -255q-70 -136 -70 -290q0 -265 188 -453
q187 -188 450 -188q264 0 451 188q187 187 187 451q0 183 -94 337q-92 151 -254 235q-135 70 -297 70z" />
    <glyph glyph-name="trademark" unicode="&#x2122;" horiz-adv-x="1903" vert-adv-y="2457" 
d="M438 529q-20 12 -49 33q-25 18 -38 27l320 694q-27 -2 -121 -8q-71 -5 -125 -6q-2 49 -11 90q423 20 590 40q-1 -26 -1 -28q0 -29 6 -67q-139 -4 -232 -13l-290 -640q-2 -5 -15 -36q-3 -8 -15 -35q-10 -25 -19 -51zM1847 547q-44 -2 -97 -39q-3 68 -3 92q0 320 13 542
q-12 -17 -92 -124q-227 -313 -370 -488l-97 -8q26 54 26 98q0 23 -7 113q-13 186 -13 312q0 39 2 89q-112 -224 -364 -575l-34 -48l-16 13q-35 32 -69 46q162 190 325 462q131 220 168 339q27 -10 51 -24q22 -13 43 -18q-12 -84 -12 -197q0 -121 14 -394l2 -40q27 39 94 126
q344 460 386 547q27 -14 43 -26q17 -12 34 -16q-18 -56 -22 -133q-10 -160 -10 -449q0 -101 5 -200z" />
    <glyph glyph-name="acute" unicode="&#xb4;" horiz-adv-x="1024" vert-adv-y="2457" 
d="M1209 1402q-237 -85 -478 -245q-24 73 -54 116q217 140 486 257q17 -75 46 -128z" />
    <glyph glyph-name="dieresis" unicode="&#xa8;" horiz-adv-x="1024" vert-adv-y="2457" 
d="M688 1171q-13 16 -53 54q-41 40 -59 54q48 112 112 206q70 -75 109 -109q-33 -47 -53 -86q-21 -45 -56 -119zM989 1171q-14 16 -54 54q-41 40 -59 54q48 112 113 206q69 -75 109 -109q-34 -47 -53 -86q-22 -45 -56 -119z" />
    <glyph glyph-name="notequal" unicode="&#x2260;" horiz-adv-x="1024" vert-adv-y="2457" 
d="M757 913l212 231l82 -39l-175 -192h279l-56 -128h-338l-174 -192h429l-56 -128h-488l-216 -236l-83 39l179 197h-280l56 128h339l175 192h-431l56 128h490z" />
    <glyph glyph-name="AE" unicode="&#xc6;" horiz-adv-x="1994" vert-adv-y="2457" 
d="M1928 7q-110 5 -219 5q-367 0 -714 -25q-233 -17 -331 -37q-4 12 -14 55q-7 29 -22 68q96 12 195 23l218 518q-160 -8 -383 -20q-46 -39 -226 -197q-167 -146 -430 -349q-125 -96 -215 -158q-38 79 -60 117q276 165 746 576q-118 -6 -364 -26l-40 -3q-4 19 -18 73
q-12 44 -17 57q47 1 192 1q157 1 384 17q114 87 448 399q99 93 148 137h-110q-14 89 -34 131q290 -11 454 -11q189 0 367 8q34 -88 59 -128q-54 1 -234 1l-175 1q-14 0 -83 -2l-222 -505q285 12 568 34q5 -15 15 -55q7 -29 23 -71l-63 -2l-176 -4q-308 -13 -418 -16
l-217 -517q295 30 923 36q17 -54 45 -131zM1091 727l213 468q-76 -82 -512 -485q39 3 161 9q105 6 138 8z" />
    <glyph glyph-name="Oslash" unicode="&#xd8;" horiz-adv-x="1373" vert-adv-y="2457" 
d="M1380 1149q35 -85 35 -185q0 -208 -89 -415q-88 -206 -235 -365q-245 -265 -534 -265q-139 0 -238 67q-28 19 -74 59q-51 -46 -201 -208q-8 8 -38 47q-32 37 -42 50q125 105 224 200q-62 109 -62 248q0 215 103 422q138 276 360 430q209 145 425 145q182 0 310 -141
q98 99 177 185q49 -77 75 -102q-73 -57 -88 -72q-80 -75 -108 -100zM1219 1139q-81 110 -234 110q-133 0 -274 -85q-215 -129 -348 -386q-106 -204 -106 -395q0 -71 31 -148zM349 144q77 -93 224 -93q135 0 274 87q134 85 252 266q180 275 180 529q0 52 -15 105z" />
    <glyph glyph-name="infinity" unicode="&#x221e;" vert-adv-y="2457" 
d="M749 600q-245 -217 -432 -217q-96 0 -152 46q-54 45 -54 125q0 115 85 237q95 138 259 194q71 25 137 25q183 0 235 -216q241 216 435 216q99 0 157 -53q46 -43 46 -116q0 -102 -69 -214q-74 -121 -198 -187q-105 -57 -215 -57q-184 0 -234 217zM860 697q11 -53 25 -88
q41 -103 140 -103q112 0 201 94q85 89 85 181q0 58 -48 88q-29 18 -67 18q-108 0 -245 -110q-18 -15 -54.5 -47t-36.5 -33zM716 696q-11 53 -25 89q-42 102 -141 102q-111 0 -200 -94q-85 -89 -85 -182q0 -57 48 -88q29 -18 66 -18q109 0 245 111q30 24 64 55z" />
    <glyph glyph-name="plusminus" unicode="&#xb1;" vert-adv-y="2457" 
d="M336 893h471l174 400h145l-174 -400h471l-54 -125h-471l-173 -396h-144l172 396h-471zM45 225h1088l-55 -125h-1087z" />
    <glyph glyph-name="lessequal" unicode="&#x2264;" horiz-adv-x="1024" vert-adv-y="2457" 
d="M1298 1242l-60 -137l-874 -324l593 -324l-60 -137l-715 397l54 124zM871 259l-59 -134h-887l58 134h888z" />
    <glyph glyph-name="greaterequal" unicode="&#x2265;" horiz-adv-x="1024" vert-adv-y="2457" 
d="M10 320l59 137l875 324l-593 324l60 137l713 -401l-55 -125zM-75 125l58 134h888l-59 -134h-887z" />
    <glyph glyph-name="yen" unicode="&#xa5;" vert-adv-y="2457" 
d="M606 434l65 142q-157 -8 -287 -36q11 42 11 99q0 8 -1 26l35 3q137 12 221 18q-121 319 -180 698l135 78q30 -395 178 -763q172 206 453 498q139 143 265 265l92 -107q-26 -24 -118 -107q-248 -228 -540 -550q89 2 214 2v-10q0 -59 28 -112q-98 9 -180 9q-16 0 -184 -4
q-26 -48 -67 -143h27q148 3 265 3q-1 -9 -1 -12q0 -57 28 -110q-97 9 -189 9q-69 0 -182 -5q-104 -217 -171 -430q-79 65 -118 88q54 130 100 232q35 78 46 103q-152 -8 -279 -34q11 41 11 100q0 7 -1 24l34 3q163 15 290 23z" />
    <glyph glyph-name="mu" unicode="&#xb5;" horiz-adv-x="880" vert-adv-y="2457" 
d="M13 -32l-11 -32q-69 -202 -86 -262q-73 58 -112 80q38 70 150 324q209 468 274 601q37 74 147 284l44 86q17 -11 61 -33q48 -25 70 -35q-144 -248 -233 -420q-68 -132 -203 -408q395 315 763 869q69 -45 120 -70q-146 -231 -253 -467q-69 -149 -224 -553q-13 9 -65 43
q-42 24 -57 35q16 39 108 238q91 197 117 253q-151 -190 -437 -439q-84 -75 -131 -130l-18 15z" />
    <glyph glyph-name="partialdiff" unicode="&#x2202;" horiz-adv-x="1024" vert-adv-y="2457" 
d="M520 1245l74 128q153 -22 252 -71q100 -50 157 -145q68 -112 68 -260q0 -174 -81 -372q-86 -213 -234 -350q-107 -98 -236 -152q-110 -46 -221 -46q-115 0 -192 64q-92 76 -92 210q0 149 109 307q118 171 292 262q138 71 270 71q123 0 183 -64q25 -26 48 -90q3 78 3 110
q0 173 -122 278q-78 68 -159 95q-42 14 -119 25zM658 782q-87 0 -192 -57q-122 -66 -211 -194q-90 -130 -90 -255q0 -93 59 -144q51 -44 125 -44q161 0 315 147q80 77 131 178q54 108 54 202q0 84 -63 130q-49 37 -128 37z" />
    <glyph glyph-name="summation" unicode="&#x2211;" vert-adv-y="2457" 
d="M1692 1536l-203 -466h-130l131 331h-861l149 -848l-923 -931h881l150 328h135l-200 -462h-1184l66 151l906 914l-146 836l64 147h1165z" />
    <glyph glyph-name="product" unicode="&#x220f;" horiz-adv-x="1428" vert-adv-y="2457" 
d="M544 1536h1279l-58 -134h-163l-774 -1780h162l-58 -134h-474l58 134h168l775 1780h-667l-775 -1780h168l-58 -134h-473l58 134h162l774 1780h-162z" />
    <glyph glyph-name="pi" unicode="&#x3c0;" horiz-adv-x="1180" vert-adv-y="2457" 
d="M10 0l370 852h-152l57 129h1067l-56 -129h-150l-370 -852h-143l370 852h-479l-371 -852h-143z" />
    <glyph glyph-name="integral" unicode="&#x222b;" horiz-adv-x="1024" vert-adv-y="2457" 
d="M-211 -489l88 127q43 -20 81 -20q96 0 151 90q21 35 73 155l554 1273q85 197 127 253q51 68 128 108q77 39 167 39q55 0 126 -22l-88 -127q-44 20 -81 20q-97 0 -151 -90q-16 -25 -101 -218l-526 -1210q-73 -168 -110 -226q-59 -94 -162 -139q-78 -33 -167 -33
q-64 0 -109 20z" />
    <glyph glyph-name="ordfeminine" unicode="&#xaa;" horiz-adv-x="910" vert-adv-y="2457" 
d="M814 786q-34 7 -49 8q-32 2 -57 6l21 48q54 117 67 147q-63 -76 -104 -116q-89 -86 -155 -86q-37 0 -65 31q-23 26 -23 66q0 94 88 217q114 160 366 295q19 -50 35 -83q-174 -99 -255 -183q-63 -65 -100 -136q-29 -54 -29 -85q0 -25 25 -25q53 0 202 187q79 100 148 219
q20 -6 47 -12q27 -7 47 -10q-60 -97 -91 -170q-52 -125 -106 -284zM773 593h-49q-231 -1 -286 -1q-26 0 -112 1q22 34 44 96q124 -6 220 -6q101 0 225 6q-22 -42 -42 -96z" />
    <glyph glyph-name="ordmasculine" unicode="&#xba;" horiz-adv-x="910" vert-adv-y="2457" 
d="M837 1382q53 0 94 -34q36 -31 36 -93q0 -79 -55 -193q-66 -135 -147 -205q-71 -62 -144 -62q-60 0 -97 41q-31 35 -31 84q0 89 65 214q63 120 147 193q65 55 132 55zM826 1287q-52 0 -126 -106q-43 -63 -74 -142q-28 -69 -28 -108q0 -41 34 -41q56 0 132 111
q31 46 68 129q31 71 31 114t-37 43zM759 593h-49q-231 -1 -286 -1q-26 0 -112 1q22 34 44 96q124 -6 220 -6q101 0 225 6q-22 -42 -42 -96z" />
    <glyph glyph-name="Omega" unicode="&#x2126;" vert-adv-y="2457" 
d="M-140 0l56 129h371q-170 135 -170 332q0 117 56 257q130 324 451 528q238 152 475 152q184 0 287 -100q56 -54 87 -131q26 -65 26 -133q0 -248 -193 -508q-179 -242 -511 -397h370l-56 -129h-533l51 117q218 99 360 221q152 131 243 292q107 189 107 347q0 81 -46 160
q-77 132 -245 132q-176 0 -359 -116q-265 -168 -377 -461q-49 -126 -49 -234q0 -203 184 -341l-50 -117h-535z" />
    <glyph glyph-name="ae" unicode="&#xe6;" horiz-adv-x="1234" vert-adv-y="2457" 
d="M1124 270q-97 -131 -170 -211q-142 -156 -286 -156q-88 0 -144 75q-49 65 -49 163q0 32 7 76q-270 -317 -429 -317q-65 0 -109 59q-32 43 -32 105q0 125 86 251q129 189 421 301q8 -12 30 -55q9 -17 34 -60q-168 -60 -280 -144q-80 -61 -123 -138q-39 -71 -39 -127
q0 -52 43 -52q62 0 191 126q174 168 268 342q82 150 82 271q0 98 -82 98q-90 0 -220 -139q-16 11 -52 39q-20 15 -48 33q68 72 149 123q125 79 221 79q62 0 108 -37q55 -44 55 -150q0 -32 -10 -87q85 96 180 164q145 102 261 102q63 0 95 -35q32 -34 32 -84
q0 -113 -130 -239q-115 -113 -336 -229q-84 -45 -158 -77q-3 11 -10 42q-4 21 -16 52q-67 -144 -67 -264q0 -61 28 -101q24 -34 63 -34q135 0 340 322q13 -12 46 -43q38 -33 50 -44zM692 479q190 80 308 166q173 126 173 193q0 30 -36 30q-78 0 -244 -148q-91 -81 -146 -155
q-15 -19 -55 -86z" />
    <glyph glyph-name="oslash" unicode="&#xf8;" horiz-adv-x="767" vert-adv-y="2457" 
d="M890 974q-76 -72 -130 -141q6 -44 6 -69q0 -128 -94 -340q-116 -260 -278 -424q-110 -111 -223 -111q-80 0 -141 66q-44 -51 -90 -123q-7 8 -31 30q-25 22 -36 31q13 14 57 69q42 51 57 73q-6 50 -6 84q0 96 39 221q61 196 178 371q118 176 235 249q70 43 138 43
q98 0 158 -82q14 16 54 61q25 29 49 59q36 -47 58 -67zM631 695l-509 -629q15 -41 64 -41q118 0 275 261q122 204 170 409zM626 814q-15 58 -70 58q-64 0 -163 -109q-112 -125 -195 -306q-52 -114 -69 -193q-6 -26 -14 -79z" />
    <glyph glyph-name="questiondown" unicode="&#xbf;" horiz-adv-x="700" vert-adv-y="2457" 
d="M395 771q18 36 53 100q38 70 61 125q15 -26 52 -81q30 -44 42 -61q-60 -92 -121 -209q-11 15 -40 57q-32 44 -47 69zM436 628q20 -40 69 -102q-91 -94 -172 -175q-82 -83 -220 -254q-240 -300 -240 -426q0 -21 12 -35q15 -18 41 -18q67 0 200 104q62 49 229 218l30 31
l7 -20q18 -57 41 -109q-116 -121 -239 -214q-177 -135 -301 -135q-64 0 -104 44q-33 35 -33 101q0 135 105 305q209 340 575 685z" />
    <glyph glyph-name="exclamdown" unicode="&#xa1;" horiz-adv-x="506" vert-adv-y="2457" 
d="M269 674q30 68 101 289q25 -22 64 -48l57 -38q-36 -82 -106 -277q-37 25 -116 74zM248 599q17 -8 55 -30l60 -32q-42 -89 -116 -260q-111 -257 -269 -591q-76 -161 -117 -235q-15 13 -55 47q-38 32 -51 42q19 38 114 226q177 346 262 553q93 222 117 280z" />
    <glyph glyph-name="logicalnot" unicode="&#xac;" horiz-adv-x="1024" vert-adv-y="2457" 
d="M615 0l179 412h-744l58 134h888l-238 -546h-143z" />
    <glyph glyph-name="radical" unicode="&#x221a;" vert-adv-y="2457" 
d="M1905 1698l-58 -134h-404l-1126 -1564h-176l97 615h-169l58 134h286l-39 -268q-5 -32 -55 -251l-8 -32h10q25 38 118 177l145 216l226 314l569 793h526z" />
    <glyph glyph-name="florin" unicode="&#x192;" vert-adv-y="2457" 
d="M1267 996h-50q-158 0 -299 -13q-130 -251 -308 -684q-163 -398 -235 -626q-11 7 -23 15q-60 41 -95 61q65 189 252 627q139 323 263 588q-55 -5 -231 -44q-18 95 -31 128q161 29 327 48q92 177 190 310q137 187 273 187q99 0 141 -135q19 -62 22 -206l-131 -40
q7 66 7 109q0 134 -68 134q-57 0 -150 -118q-45 -57 -141 -228q42 2 149 10q72 5 123 6q1 -27 15 -129z" />
    <glyph glyph-name="approxequal" unicode="&#x2248;" horiz-adv-x="1024" vert-adv-y="2457" 
d="M217 712l-61 55q67 74 131 127q127 106 252 106q74 0 196 -72q83 -49 112 -58t58 -9q74 0 144 50q44 32 107 93l65 -51q-213 -229 -392 -229q-34 0 -82 17q-46 17 -67 29l-94 54q-67 39 -120 39q-101 0 -249 -151zM70 374l-61 55q66 73 131 127q127 106 252 106
q75 0 196 -71q82 -48 112 -57t59 -9q73 0 143 50q45 31 107 91l65 -51q-102 -108 -179 -157q-112 -71 -213 -71q-34 0 -82 17q-47 17 -67 29l-94 53q-67 39 -120 39q-101 0 -249 -151z" />
    <glyph glyph-name="Delta" unicode="&#x2206;" vert-adv-y="2457" 
d="M-141 0l1140 1365h154l-43 -1365h-1251zM123 134h837l41 1056z" />
    <glyph glyph-name="guillemotleft" unicode="&#xab;" horiz-adv-x="974" vert-adv-y="2457" 
d="M865 865q33 -42 83 -95q-122 -174 -383 -359q123 -122 192 -251q-9 -6 -17 -12q-39 -31 -95 -79q-104 230 -262 342q139 104 256 212q166 154 226 242zM516 861q32 -46 81 -93q-56 -79 -205 -219q-32 -29 -122 -97q-22 -16 -51 -41q122 -108 190 -251q-72 -51 -115 -98
q-38 100 -98 183q-44 61 -154 166q344 259 474 450z" />
    <glyph glyph-name="guillemotright" unicode="&#xbb;" horiz-adv-x="974" vert-adv-y="2457" 
d="M102 62q-31 39 -71 81l-12 13q122 175 383 360q-123 122 -192 250q8 7 17 13q39 31 95 79q102 -230 261 -342q-138 -104 -256 -212q-164 -153 -225 -242zM450 66q-32 46 -80 93q56 79 205 219q31 28 121 97q22 16 52 41q-124 109 -190 251q73 52 114 98q39 -100 99 -183
q44 -61 154 -166q-343 -259 -475 -450z" />
    <glyph glyph-name="ellipsis" unicode="&#x2026;" horiz-adv-x="1335" vert-adv-y="2457" 
d="M170 175q-23 -48 -102 -289q-41 34 -63 48q-41 27 -57 38q18 38 62 157q37 98 44 120q42 -30 116 -74zM615 175q-23 -48 -101 -289q-42 34 -64 48q-41 27 -57 38q18 38 62 157q37 98 44 120q42 -30 116 -74zM1060 175q-23 -48 -101 -289q-42 34 -64 48q-41 27 -57 38
q18 38 63 157q36 98 43 120q42 -30 116 -74z" />
    <glyph glyph-name="glyph172" vert-adv-y="1365" 
 />
    <glyph glyph-name="Agrave" unicode="&#xc0;" horiz-adv-x="1388" vert-adv-y="2457" 
d="M1203 -26q-62 -13 -148 -47q-3 60 -3 116q0 138 11 500l2 56q-70 -5 -182 -12q-136 -8 -305 -21q-34 -38 -190 -216q-172 -196 -408 -423q-41 63 -86 105q48 49 192 184q26 21 231 243q40 43 86 95q-48 -2 -181 -9q-132 -6 -178 -9q-14 80 -29 132l38 1q216 1 468 18
l63 75q388 456 544 686l19 -11q69 -41 96 -51q-32 -218 -44 -595l-3 -64q63 2 112 7q5 -16 15 -60q5 -23 20 -70q-37 2 -57 2q-15 0 -93 -3v-73l-2 -259q0 -138 12 -297zM1068 718q4 52 15 259q5 83 21 239q-40 -50 -133 -169q-213 -262 -285 -351q43 1 189 10q148 8 193 12
zM1054 1874q43 -65 137 -166q84 -89 146 -138q-73 -47 -104 -72q-118 91 -294 305q12 7 53 32q48 31 62 39z" />
    <glyph glyph-name="Atilde" unicode="&#xc3;" horiz-adv-x="1388" vert-adv-y="2457" 
d="M1203 -26q-62 -13 -148 -47q-3 60 -3 116q0 138 11 500l2 56q-70 -5 -182 -12q-136 -8 -305 -21q-34 -38 -190 -216q-172 -196 -408 -423q-41 63 -86 105q48 49 192 184q26 21 231 243q40 43 86 95q-48 -2 -181 -9q-132 -6 -178 -9q-14 80 -29 132l38 1q216 1 468 18
l63 75q388 456 544 686l19 -11q69 -41 96 -51q-32 -218 -44 -595l-3 -64q63 2 112 7q5 -16 15 -60q5 -23 20 -70q-37 2 -57 2q-15 0 -93 -3v-73l-2 -259q0 -138 12 -297zM1068 718q4 52 15 259q5 83 21 239q-40 -50 -133 -169q-213 -262 -285 -351q43 1 189 10q148 8 193 12
zM1528 1667q-118 -90 -230 -90q-66 0 -144 30q-51 20 -65 24q-31 10 -71 10q-77 0 -144 -61q-37 74 -58 109q94 78 205 78q52 0 135 -31q99 -36 144 -36q79 0 173 69q11 -41 55 -102z" />
    <glyph glyph-name="Otilde" unicode="&#xd5;" horiz-adv-x="1373" vert-adv-y="2457" 
d="M1010 1381q174 0 287 -111q118 -116 118 -322q0 -244 -140 -504q-142 -266 -358 -410q-173 -114 -363 -114q-120 0 -222 55q-110 60 -161 172q-47 102 -47 222q0 261 140 509q146 258 398 402q175 101 348 101zM985 1252q-149 0 -308 -107q-200 -133 -323 -384
q-99 -202 -99 -386q0 -165 104 -253q83 -71 208 -71q159 0 315 116q191 141 310 409q83 186 83 362q0 164 -89 247q-71 67 -201 67zM1466 1667q-119 -90 -230 -90q-66 0 -144 30q-52 20 -65 24q-31 10 -71 10q-77 0 -145 -61q-36 74 -57 109q94 78 204 78q53 0 136 -31
q99 -36 144 -36q79 0 173 69q10 -41 55 -102z" />
    <glyph glyph-name="OE" unicode="&#x152;" horiz-adv-x="2157" vert-adv-y="2457" 
d="M2093 10q-130 4 -211 4q-116 0 -605 -19q-249 -9 -447 -34v23q-156 -64 -266 -64q-219 0 -340 147q-102 126 -102 309q0 252 145 501q154 264 397 404q171 99 346 99q191 0 305 -129q61 -69 91 -189l76 179q-57 -3 -82 -3h-27q-4 18 -15 71q-6 32 -17 64l50 -1
q269 -7 325 -7q133 0 347 8q16 -62 47 -135q-165 9 -317 9q-100 0 -181 -4l-130 -297q406 11 559 25l3 -17q11 -66 29 -110q-44 1 -65 1q-41 0 -173 -5q-50 -1 -200 -5q-123 -3 -202 -9l-307 -714q584 29 786 29q54 0 129 -2q6 -15 23 -60q5 -11 29 -69zM981 1250
q-146 0 -301 -104q-197 -133 -324 -381q-101 -200 -101 -378q0 -96 45 -181q41 -77 117 -118q69 -36 153 -36q163 0 317 113q188 137 307 410q86 195 86 361q0 160 -93 246q-73 68 -206 68z" />
    <glyph glyph-name="oe" unicode="&#x153;" horiz-adv-x="1225" vert-adv-y="2457" 
d="M1119 279q-59 -99 -142 -192q-85 -95 -156.5 -136.5t-148.5 -41.5q-102 0 -156 84q-26 40 -35 101q-178 -200 -324 -200q-82 0 -134 70q-45 60 -45 149q0 178 115 410q120 241 267 375q117 106 225 106q71 0 122 -48q59 -57 60 -186q245 232 412 232q59 0 93 -28
q41 -32 41 -95q0 -158 -266 -344q-156 -109 -357 -198l-12 48q-2 9 -12 46q-63 -139 -63 -261q0 -65 28 -100q26 -32 61 -32q59 0 144 72q74 64 138 162q17 28 53 87q12 -9 39 -34q40 -33 53 -46zM685 467q163 67 317 179q173 126 173 201q0 25 -31 25q-85 0 -233 -137
q-92 -84 -154 -162q-24 -30 -72 -106zM555 870q-42 0 -107 -56q-105 -90 -219 -309q-114 -218 -114 -377q0 -100 74 -100q109 0 260 231q76 116 132 266q53 143 53 241q0 104 -79 104z" />
    <glyph glyph-name="endash" unicode="&#x2013;" horiz-adv-x="917" vert-adv-y="2457" 
d="M753 408h-68l-255 -3q-33 0 -321 3q35 46 75 143q154 -10 375 -10q135 0 255 10q-4 -8 -11 -24q-27 -57 -50 -119z" />
    <glyph glyph-name="emdash" unicode="&#x2014;" horiz-adv-x="1092" vert-adv-y="2457" 
d="M1065 408h-115l-431 -3l-444 3h-102q46 47 84 143q265 -10 641 -10q227 0 427 10q-9 -20 -11 -24q-28 -57 -49 -119z" />
    <glyph glyph-name="quotedblleft" unicode="&#x201c;" horiz-adv-x="721" vert-adv-y="2457" 
d="M597 1393q32 -30 88 -75q-140 -182 -170 -250q23 -19 56 -63q-70 -81 -121 -174q-70 57 -131 91q17 74 104 236q67 121 174 235zM870 1393q32 -30 89 -75q-141 -182 -171 -250q23 -19 56 -63q-70 -81 -121 -174q-70 57 -131 91q17 74 104 236q67 121 174 235z" />
    <glyph glyph-name="quotedblright" unicode="&#x201d;" horiz-adv-x="721" vert-adv-y="2457" 
d="M654 831q-11 12 -42 38q-32 27 -46 38q139 173 170 249q-23 20 -56 63q67 78 122 174q58 -50 131 -91q-17 -74 -105 -235q-68 -125 -174 -236zM381 831q-11 12 -43 39q-31 27 -45 37q140 180 170 249q-23 20 -56 63q67 78 122 174q81 -65 130 -91q-16 -74 -104 -235
q-68 -125 -174 -236z" />
    <glyph glyph-name="quoteleft" unicode="&#x2018;" horiz-adv-x="448" vert-adv-y="2457" 
d="M595 1388q12 -12 43 -38q31 -27 45 -37q-139 -181 -170 -249q23 -21 56 -64q-70 -80 -121 -173q-75 63 -131 90q17 74 104 236q68 123 174 235z" />
    <glyph glyph-name="quoteright" unicode="&#x2019;" horiz-adv-x="448" vert-adv-y="2457" 
d="M379 827q-11 12 -43 38q-31 27 -45 37q140 181 170 249q-23 20 -56 63q67 78 122 174q75 -63 130 -90q-16 -75 -104 -236q-68 -124 -174 -235z" />
    <glyph glyph-name="divide" unicode="&#xf7;" vert-adv-y="2457" 
d="M272 745h1088l-55 -125h-1087zM641 171q-14 16 -54 53q-41 40 -58 54q47 112 112 207q70 -76 109 -109q-34 -48 -53 -87q-22 -45 -56 -118zM946 874q-13 16 -53 54q-41 39 -59 53q48 112 112 207q70 -76 109 -109q-33 -48 -53 -87q-21 -45 -56 -118z" />
    <glyph glyph-name="lozenge" unicode="&#x25ca;" vert-adv-y="2457" 
d="M782 1420l531 -737l-531 -735l-532 735zM782 1238l-404 -555l404 -554l403 554z" />
    <glyph glyph-name="ydieresis" unicode="&#xff;" horiz-adv-x="927" vert-adv-y="2457" 
d="M219 -638q-60 43 -109 70q31 63 153 291q135 254 289 555q93 178 148 276q-24 -21 -47 -42q-122 -109 -190 -164.5t-247 -190.5q-103 -78 -149 -115q-51 35 -107 70q252 524 334 721q74 174 101 229q62 -59 112 -91q-29 -57 -110 -229q-65 -134 -205 -416l-30 -62
q89 56 268 197q184 142 353 344q92 111 147 198q35 -43 94 -104q-44 -68 -321 -595q-219 -422 -454 -884zM640 1171q-13 16 -53 54q-41 40 -59 54q48 112 112 206q70 -75 109 -109q-33 -47 -53 -86q-21 -45 -56 -119zM941 1171q-14 16 -54 54q-41 40 -59 54q48 112 113 206
q69 -75 109 -109q-34 -47 -53 -86q-22 -45 -56 -119z" />
    <glyph glyph-name="Ydieresis" unicode="&#x178;" horiz-adv-x="1040" vert-adv-y="2457" 
d="M1308 1354q-9 -13 -18 -25q-131 -176 -416 -744q-235 -470 -408 -939q-15 8 -61 37q-46 26 -63 36q97 265 309 709q131 273 315 594l-726 -554q-13 15 -49 61q-34 40 -44 52q80 155 251 528q163 345 202 438q56 -66 105 -105l-22 -47q-166 -347 -317 -650l-24 -48
l460 347q203 162 268 237q78 87 130 161q35 -31 56 -47q41 -31 52 -41zM866 1516q-14 15 -54 53q-41 40 -59 54q48 112 113 206q69 -75 109 -109q-31 -43 -42.5 -64.5t-66.5 -139.5zM1166 1516q-14 15 -54 53q-41 40 -58 54q48 112 112 206q70 -75 109 -109q-34 -47 -53 -86
q-22 -45 -56 -118z" />
    <glyph glyph-name="fraction" unicode="&#x2215;" horiz-adv-x="175" vert-adv-y="2457" 
d="M695 1281q-122 -156 -203 -270q-436 -606 -521 -731q-114 -165 -221 -357q-70 67 -100 84q60 82 193 272q91 133 185 260q213 298 419 605q95 141 143 229q65 -63 105 -92z" />
    <glyph glyph-name="currency" unicode="&#xa4;" vert-adv-y="2457" 
d="M1371 1164l69 -116l-170 -118q6 -39 6 -61q0 -162 -96 -332q-50 -89 -128 -169l75 -129l-111 -78l-69 118q-144 -96 -307 -96q-192 0 -293 118l-142 -99l-69 115l152 106q-9 46 -9 80q0 189 124 367q50 70 118 132l-72 125l111 78l71 -123q146 87 302 87q188 0 281 -115z
M919 1063q-130 0 -245 -76q-138 -92 -214 -260q-55 -121 -55 -227q0 -122 91 -177q58 -35 146 -35q233 0 390 225q64 92 96 201q23 77 23 144q0 118 -82 170q-55 35 -150 35z" />
    <glyph glyph-name="guilsinglleft" unicode="&#x2039;" horiz-adv-x="626" vert-adv-y="2457" 
d="M516 861q32 -46 81 -93q-56 -79 -205 -219q-32 -29 -122 -97q-22 -16 -51 -41q122 -108 190 -251q-72 -51 -115 -98q-38 100 -98 183q-44 61 -154 166q344 259 474 450z" />
    <glyph glyph-name="guilsinglright" unicode="&#x203a;" horiz-adv-x="626" vert-adv-y="2457" 
d="M104 66q-31 44 -81 93q56 79 205 219q32 28 122 97q22 16 51 41q-123 108 -190 251q74 52 115 98q39 -101 98 -183q44 -61 154 -166q-343 -259 -474 -450z" />
    <glyph glyph-name="fi" unicode="&#xf001;" horiz-adv-x="996" vert-adv-y="2457" 
d="M845 757q-242 0 -360 -12q-128 -244 -308 -684q-162 -396 -233 -627q-12 8 -24 15q-64 41 -101 61q64 188 251 628q132 306 263 587q-57 -5 -240 -43q-21 94 -35 127q167 29 341 48q93 178 192 310q141 188 282 188q104 0 150 -135q17 -51 25 -153l-129 -38q1 30 1 46
q0 72 -23 110q-19 32 -51 32q-60 0 -154 -118q-47 -58 -143 -229q43 2 155 10q75 5 129 6q1 -27 13 -102l3 -18q73 167 92 211q13 -9 57 -42q31 -23 58 -40q-59 -103 -222 -470q-182 -413 -206 -477q-73 57 -112 79q45 85 116 246q72 167 158 360z" />
    <glyph glyph-name="fl" unicode="&#xf002;" horiz-adv-x="987" vert-adv-y="2457" 
d="M836 757q-219 0 -351 -12q-128 -244 -308 -684q-162 -396 -233 -627q-12 8 -24 15q-64 41 -101 61q64 188 251 628q132 306 263 587q-57 -5 -240 -43q-21 94 -35 127q167 29 341 48q93 178 192 310q141 187 281 187q51 0 94 -38q34 -31 64 -122q41 90 107 220
q18 -13 51 -33q29 -18 61 -39q-125 -234 -298 -646q-193 -462 -299 -790q-19 10 -110 53l-19 9q22 56 111 296q65 172 179 438zM1021 1177l-108 -37q-18 76 -67 76q-108 0 -297 -346q43 2 155 10q75 5 129 6q0 -26 13 -105q90 210 175 396z" />
    <glyph glyph-name="daggerdbl" unicode="&#x2021;" horiz-adv-x="1229" vert-adv-y="2457" 
d="M899 970q200 0 370 9q-8 -18 -10 -22q-25 -52 -45 -109q-245 8 -366 9q-116 -260 -198 -468q198 0 367 9l-11 -22q-24 -51 -44 -108q-218 7 -357 8q-89 -210 -206 -559q-43 24 -128 69l18 46q114 301 173 445q-172 -1 -394 -9q48 61 75 130q142 -7 364 -8q71 177 200 467
q-148 0 -387 -9q47 59 75 131q143 -6 362 -9q81 187 202 431q21 -17 50 -37q37 -25 60 -43q-93 -177 -170 -351z" />
    <glyph glyph-name="periodcentered" unicode="&#x2219;" horiz-adv-x="445" vert-adv-y="2457" 
d="M348 585q-23 -48 -101 -288q-23 19 -64 47q-30 20 -54 39q70 183 103 276q37 -27 116 -74z" />
    <glyph glyph-name="quotesinglbase" unicode="&#x201a;" horiz-adv-x="448" vert-adv-y="2457" 
d="M-52 -320q-32 29 -88 75q140 180 170 249q-23 20 -56 63q67 78 122 174q70 -57 130 -91q-16 -74 -104 -235q-68 -125 -174 -235z" />
    <glyph glyph-name="quotedblbase" unicode="&#x201e;" horiz-adv-x="721" vert-adv-y="2457" 
d="M221 -320q-32 29 -88 75q140 180 170 249q-23 20 -56 63q67 78 122 174q70 -57 131 -91q-17 -74 -105 -235q-68 -125 -174 -235zM-52 -320q-32 29 -88 75q140 180 170 249q-23 20 -56 63q67 78 122 174q70 -57 130 -91q-16 -74 -104 -235q-68 -125 -174 -235z" />
    <glyph glyph-name="perthousand" unicode="&#x2030;" horiz-adv-x="2284" vert-adv-y="2457" 
d="M1255 697q89 0 141 -63q51 -63 51 -157q0 -133 -79 -283q-80 -149 -193 -224q-82 -54 -169 -54q-92 0 -148 67q-53 63 -53 159q0 179 112 340q90 129 212 186q61 29 126 29zM1231 586q-42 0 -103 -39q-79 -52 -139 -152q-70 -120 -70 -241q0 -59 31 -99q25 -31 64 -31
q61 0 135 59q78 64 136 184q51 106 51 196q0 123 -105 123zM1388 1281q-115 -146 -258 -344q-396 -549 -501 -703q-98 -143 -185 -311q-73 67 -104 84q60 83 193 272q93 128 184 260q223 312 419 605q96 143 143 229q71 -66 109 -92zM729 1387q99 0 156 -78q41 -57 41 -141
q0 -151 -95 -312q-80 -135 -187 -204q-77 -50 -158 -50q-106 0 -162 89q-40 62 -40 141q0 153 89 303q78 133 199 205q81 47 157 47zM703 1274q-85 0 -178 -113q-127 -152 -127 -320q0 -59 30 -96q25 -32 67 -32q68 0 145 68q74 66 129 196q43 100 43 177q0 120 -109 120z
M1936 697q89 0 141 -63q51 -63 51 -157q0 -133 -79 -283q-80 -149 -193 -224q-82 -54 -169 -54q-92 0 -148 67q-53 63 -53 159q0 179 112 340q90 129 212 186q61 29 126 29zM1912 586q-43 0 -103 -39q-80 -52 -139 -152q-70 -119 -70 -241q0 -59 31 -99q25 -31 64 -31
q60 0 135 59q78 64 136 184q51 107 51 196q0 123 -105 123z" />
    <glyph glyph-name="Acircumflex" unicode="&#xc2;" horiz-adv-x="1388" vert-adv-y="2457" 
d="M1203 -26q-62 -13 -148 -47q-3 60 -3 116q0 138 11 500l2 56q-70 -5 -182 -12q-136 -8 -305 -21q-34 -38 -190 -216q-172 -196 -408 -423q-41 63 -86 105q48 49 192 184q26 21 231 243q40 43 86 95q-48 -2 -181 -9q-132 -6 -178 -9q-14 80 -29 132l38 1q216 1 468 18
l63 75q388 456 544 686l19 -11q69 -41 96 -51q-32 -218 -44 -595l-3 -64q63 2 112 7q5 -16 15 -60q5 -23 20 -70q-37 2 -57 2q-15 0 -93 -3v-73l-2 -259q0 -138 12 -297zM1068 718q4 52 15 259q5 83 21 239q-40 -50 -133 -169q-213 -262 -285 -351q43 1 189 10q148 8 193 12
zM1457 1547q-35 -22 -96 -68q-80 91 -139 240q-126 -140 -279 -240l-12 13q-25 27 -71 73q224 106 397 370q66 -246 200 -388z" />
    <glyph glyph-name="Ecircumflex" unicode="&#xca;" horiz-adv-x="1209" vert-adv-y="2457" 
d="M1145 11q-106 3 -157 3q-250 0 -658 -20q-265 -13 -444 -36q-12 62 -34 127l28 3q125 13 164 15l309 718q-18 -2 -61 -3q-6 0 -42 -2l-23 -1q-7 48 -37 126q49 -1 85 -1q30 0 131 4l127 295h-29q-50 0 -79 -5q-8 46 -33 139q235 -6 318 -6q233 0 403 6q18 -67 48 -135
q-169 8 -271 8q-144 0 -228 -3l-129 -299q291 7 556 28q10 -59 35 -125l-61 -2l-177 -6l-201 -7q-160 -5 -200 -7l-306 -716l80 5q489 27 734 27q34 0 107 -1q32 -101 45 -129zM1129 1547q-36 -22 -97 -68q-80 91 -138 240q-127 -140 -279 -240l-13 13q-25 27 -70 73
q223 106 396 370q66 -246 201 -388z" />
    <glyph glyph-name="Aacute" unicode="&#xc1;" horiz-adv-x="1388" vert-adv-y="2457" 
d="M1203 -26q-62 -13 -148 -47q-3 60 -3 116q0 138 11 500l2 56q-70 -5 -182 -12q-136 -8 -305 -21q-34 -38 -190 -216q-172 -196 -408 -423q-41 63 -86 105q48 49 192 184q26 21 231 243q40 43 86 95q-48 -2 -181 -9q-132 -6 -178 -9q-14 80 -29 132l38 1q216 1 468 18
l63 75q388 456 544 686l19 -11q69 -41 96 -51q-32 -218 -44 -595l-3 -64q63 2 112 7q5 -16 15 -60q5 -23 20 -70q-37 2 -57 2q-15 0 -93 -3v-73l-2 -259q0 -138 12 -297zM1068 718q4 52 15 259q5 83 21 239q-40 -50 -133 -169q-213 -262 -285 -351q43 1 189 10q148 8 193 12
zM1552 1743q-236 -85 -477 -245q-24 73 -54 116q216 140 486 257q17 -75 45 -128z" />
    <glyph glyph-name="Edieresis" unicode="&#xcb;" horiz-adv-x="1209" vert-adv-y="2457" 
d="M1145 11q-106 3 -157 3q-250 0 -658 -20q-265 -13 -444 -36q-12 62 -34 127l28 3q125 13 164 15l309 718q-18 -2 -61 -3q-6 0 -42 -2l-23 -1q-7 48 -37 126q49 -1 85 -1q30 0 131 4l127 295h-29q-50 0 -79 -5q-8 46 -33 139q235 -6 318 -6q233 0 403 6q18 -67 48 -135
q-169 8 -271 8q-144 0 -228 -3l-129 -299q291 7 556 28q10 -59 35 -125l-61 -2l-177 -6l-201 -7q-160 -5 -200 -7l-306 -716l80 5q489 27 734 27q34 0 107 -1q32 -101 45 -129zM724 1516q-13 15 -53 53q-41 40 -59 54q48 112 112 206q70 -75 109 -109q-33 -47 -53 -86
q-21 -45 -56 -118zM1025 1516q-14 15 -54 53q-41 40 -59 54q48 112 113 206q70 -75 109 -109q-34 -47 -53 -86q-22 -45 -56 -118z" />
    <glyph glyph-name="Egrave" unicode="&#xc8;" horiz-adv-x="1209" vert-adv-y="2457" 
d="M1145 11q-106 3 -157 3q-250 0 -658 -20q-265 -13 -444 -36q-12 62 -34 127l28 3q125 13 164 15l309 718q-18 -2 -61 -3q-6 0 -42 -2l-23 -1q-7 48 -37 126q49 -1 85 -1q30 0 131 4l127 295h-29q-50 0 -79 -5q-8 46 -33 139q235 -6 318 -6q233 0 403 6q18 -67 48 -135
q-169 8 -271 8q-144 0 -228 -3l-129 -299q291 7 556 28q10 -59 35 -125l-61 -2l-177 -6l-201 -7q-160 -5 -200 -7l-306 -716l80 5q489 27 734 27q34 0 107 -1q32 -101 45 -129zM732 1874q44 -65 138 -166q83 -89 145 -138q-73 -47 -104 -72q-118 91 -294 305q12 7 54 32
q47 31 61 39z" />
    <glyph glyph-name="Iacute" unicode="&#xcd;" horiz-adv-x="527" vert-adv-y="2457" 
d="M119 -58q-45 34 -59 44q-41 28 -53 38q22 49 113 265q390 931 462 1112q33 -35 112 -91l-16 -38l-127 -296l-167 -396l-147 -350l-105 -257zM1081 1743q-237 -85 -478 -245q-24 73 -54 116q217 140 487 257q16 -75 45 -128z" />
    <glyph glyph-name="Icircumflex" unicode="&#xce;" horiz-adv-x="527" vert-adv-y="2457" 
d="M119 -58q-45 34 -59 44q-41 28 -53 38q22 49 113 265q390 931 462 1112q33 -35 112 -91l-16 -38l-127 -296l-167 -396l-147 -350l-105 -257zM952 1547q-36 -22 -97 -68q-80 91 -138 240q-127 -140 -279 -240l-13 13q-25 27 -70 73q223 106 396 370q66 -246 201 -388z" />
    <glyph glyph-name="Idieresis" unicode="&#xcf;" horiz-adv-x="527" vert-adv-y="2457" 
d="M119 -58q-45 34 -59 44q-41 28 -53 38q22 49 113 265q390 931 462 1112q33 -35 112 -91l-16 -38l-127 -296l-167 -396l-147 -350l-105 -257zM561 1516q-14 15 -54 53q-41 40 -58 54q48 112 112 206q70 -75 109 -109q-33 -47 -53 -86q-21 -45 -56 -118zM834 1516
q-14 15 -54 53q-41 40 -58 54q48 112 112 206q70 -75 109 -109q-33 -47 -53 -86q-21 -45 -56 -118z" />
    <glyph glyph-name="Igrave" unicode="&#xcc;" horiz-adv-x="527" vert-adv-y="2457" 
d="M119 -58q-45 34 -59 44q-41 28 -53 38q22 49 113 265q390 931 462 1112q33 -35 112 -91l-16 -38l-127 -296l-167 -396l-147 -350l-105 -257zM541 1874q44 -65 138 -166q83 -89 146 -138q-74 -47 -104 -72q-119 91 -295 305q12 7 54 32q47 31 61 39z" />
    <glyph glyph-name="Oacute" unicode="&#xd3;" horiz-adv-x="1373" vert-adv-y="2457" 
d="M1010 1381q174 0 287 -111q118 -116 118 -322q0 -244 -140 -504q-142 -266 -358 -410q-173 -114 -363 -114q-120 0 -222 55q-110 60 -161 172q-47 102 -47 222q0 261 140 509q146 258 398 402q175 101 348 101zM985 1252q-149 0 -308 -107q-200 -133 -323 -384
q-99 -202 -99 -386q0 -165 104 -253q83 -71 208 -71q159 0 315 116q191 141 310 409q83 186 83 362q0 164 -89 247q-71 67 -201 67zM1504 1743q-237 -85 -478 -245q-24 73 -54 116q217 140 486 257q17 -75 46 -128z" />
    <glyph glyph-name="Ocircumflex" unicode="&#xd4;" horiz-adv-x="1373" vert-adv-y="2457" 
d="M1010 1381q174 0 287 -111q118 -116 118 -322q0 -244 -140 -504q-142 -266 -358 -410q-173 -114 -363 -114q-120 0 -222 55q-110 60 -161 172q-47 102 -47 222q0 261 140 509q146 258 398 402q175 101 348 101zM985 1252q-149 0 -308 -107q-200 -133 -323 -384
q-99 -202 -99 -386q0 -165 104 -253q83 -71 208 -71q159 0 315 116q191 141 310 409q83 186 83 362q0 164 -89 247q-71 67 -201 67zM1374 1547q-35 -22 -96 -68q-80 91 -139 240q-126 -140 -279 -240l-12 13q-25 27 -71 73q224 106 397 370q66 -246 200 -388z" />
    <glyph glyph-name="apple" unicode="&#xf000;" vert-adv-y="2457" 
d="M1033 1416v-20q0 -162 -127 -266q-80 -65 -146 -68q-13 -1 -31 -1q0 142 82 239q91 104 222 116zM1326 935q-65 -50 -98 -92q-67 -84 -67 -192q0 -150 111 -251q34 -30 92 -55q-66 -161 -139 -256q-110 -143 -208 -143q-39 0 -82 18l-83 34q-17 7 -75 7q-73 0 -98 -10
l-87 -35q-41 -17 -79 -17q-72 0 -150 76q-100 96 -175 273q-73 175 -73 343q0 176 100 307q103 134 281 134q67 0 160 -35q68 -26 101 -26q31 0 85 21q71 27 101 35q36 10 87 10q189 0 296 -146z" />
    <glyph glyph-name="Ograve" unicode="&#xd2;" horiz-adv-x="1373" vert-adv-y="2457" 
d="M1010 1381q174 0 287 -111q118 -116 118 -322q0 -244 -140 -504q-142 -266 -358 -410q-173 -114 -363 -114q-120 0 -222 55q-110 60 -161 172q-47 102 -47 222q0 261 140 509q146 258 398 402q175 101 348 101zM985 1252q-149 0 -308 -107q-200 -133 -323 -384
q-99 -202 -99 -386q0 -165 104 -253q83 -71 208 -71q159 0 315 116q191 141 310 409q83 186 83 362q0 164 -89 247q-71 67 -201 67zM971 1874q44 -65 138 -166q83 -89 145 -138q-73 -47 -104 -72q-118 91 -294 305q12 7 53 32q48 31 62 39z" />
    <glyph glyph-name="Uacute" unicode="&#xda;" horiz-adv-x="1260" vert-adv-y="2457" 
d="M831 -74q-64 53 -109 85q40 92 124 278q86 191 221 510q-191 -235 -497 -507q-134 -123 -468 -366q-10 10 -51 60q-35 34 -49 48q42 91 229 544l117 287q161 385 224 545q17 -17 58 -51q36 -31 53 -44q-161 -341 -491 -1161q118 78 373 302q227 197 425 426
q157 180 335 512q44 -47 105 -100l-23 -51q-116 -257 -220 -496q-103 -234 -255 -576q-44 -97 -101 -245zM1447 1743q-236 -85 -477 -245q-24 73 -54 116q216 140 486 257q17 -75 45 -128z" />
    <glyph glyph-name="Ucircumflex" unicode="&#xdb;" horiz-adv-x="1260" vert-adv-y="2457" 
d="M831 -74q-64 53 -109 85q40 92 124 278q86 191 221 510q-191 -235 -497 -507q-134 -123 -468 -366q-10 10 -51 60q-35 34 -49 48q42 91 229 544l117 287q161 385 224 545q17 -17 58 -51q36 -31 53 -44q-161 -341 -491 -1161q118 78 373 302q227 197 425 426
q157 180 335 512q44 -47 105 -100l-23 -51q-116 -257 -220 -496q-103 -234 -255 -576q-44 -97 -101 -245zM1311 1547q-35 -22 -96 -68q-80 91 -139 240q-126 -140 -279 -240l-12 13q-25 27 -71 73q224 106 397 370q66 -246 200 -388z" />
    <glyph glyph-name="Ugrave" unicode="&#xd9;" horiz-adv-x="1260" vert-adv-y="2457" 
d="M831 -74q-64 53 -109 85q40 92 124 278q86 191 221 510q-191 -235 -497 -507q-134 -123 -468 -366q-10 10 -51 60q-35 34 -49 48q42 91 229 544l117 287q161 385 224 545q17 -17 58 -51q36 -31 53 -44q-161 -341 -491 -1161q118 78 373 302q227 197 425 426
q157 180 335 512q44 -47 105 -100l-23 -51q-116 -257 -220 -496q-103 -234 -255 -576q-44 -97 -101 -245zM880 1874q44 -65 138 -166q83 -89 146 -138q-74 -47 -104 -72q-119 91 -295 305q12 7 54 32q47 31 61 39z" />
    <glyph glyph-name="dotlessi" unicode="&#x131;" horiz-adv-x="410" vert-adv-y="2457" 
d="M471 895q-60 -104 -222 -470q-183 -414 -207 -478q-73 58 -112 80q45 84 116 245q71 171 218 497q63 141 91 208q14 -10 57 -42q31 -23 59 -40z" />
    <glyph glyph-name="circumflex" unicode="&#x2c6;" horiz-adv-x="1024" vert-adv-y="2457" 
d="M1056 1215q-35 -22 -96 -68q-80 91 -139 240q-126 -140 -279 -240l-12 13q-25 27 -71 73q224 106 397 370q66 -246 200 -388z" />
    <glyph glyph-name="tilde" unicode="&#x2dc;" horiz-adv-x="1024" vert-adv-y="2457" 
d="M1118 1329q-33 -37 -59 -54q-51 -33 -120 -33q-54 0 -115 27q-85 37 -126 37q-39 0 -81 -29q-13 -9 -41 -33q-16 55 -54 105q42 34 68 48q52 30 113 30q48 0 98 -18q13 -4 80 -35q27 -12 59 -12q70 0 123 65q19 -66 55 -98z" />
    <glyph glyph-name="macron" unicode="&#x2c9;" horiz-adv-x="1024" vert-adv-y="2457" 
d="M1100 1256q-52 0 -297 -6q-208 5 -261 6q22 28 56 119q151 -9 278 -9q123 0 278 9q-42 -76 -54 -119z" />
    <glyph glyph-name="breve" unicode="&#x2d8;" horiz-adv-x="1024" vert-adv-y="2457" 
d="M1188 1494q-37 -117 -93 -185q-99 -121 -287 -121q-137 0 -190 89q-28 46 -28 111q0 55 17 95q18 -4 39 -4q35 0 74 4q-14 -31 -14 -64q0 -114 117 -114q173 0 231 174q19 -2 29 -2q47 0 105 17z" />
    <glyph glyph-name="dotaccent" unicode="&#x2d9;" horiz-adv-x="1024" vert-adv-y="2457" 
d="M838 1171q-13 16 -53 54q-41 40 -59 54q48 112 112 206q70 -75 109 -109q-33 -47 -53 -86q-21 -45 -56 -119z" />
    <glyph glyph-name="ring" unicode="&#x2da;" horiz-adv-x="1024" vert-adv-y="2457" 
d="M920 1560q77 0 120 -63q22 -34 22 -84q0 -67 -39 -134q-42 -71 -110 -112q-54 -34 -118 -34q-67 0 -109 43q-39 39 -39 96q0 126 122 225q78 63 151 63zM906 1465q-49 0 -106 -64q-53 -60 -53 -118q0 -25 16 -43q18 -20 43 -20q42 0 81 35q36 33 61 81q19 38 19 69
q0 60 -61 60z" />
    <glyph glyph-name="cedilla" unicode="&#xb8;" horiz-adv-x="1024" vert-adv-y="2457" 
d="M409 0l-105 -176q84 -25 84 -92q0 -66 -44 -128q-51 -72 -157 -101q-60 -17 -118 -17q-25 0 -62 6q12 16 30 50q17 31 22 47q37 -4 49 -4q60 0 110 35q53 37 53 85q0 44 -52 56q-16 4 -54 6l137 233h107z" />
    <glyph glyph-name="hungarumlaut" unicode="&#x2dd;" horiz-adv-x="1024" vert-adv-y="2457" 
d="M986 1437q-46 -34 -140 -103q-161 -125 -215 -177q-27 34 -35 42q-11 11 -51 42q160 144 349 284q7 -7 13 -15q25 -28 79 -73zM1314 1437q-32 -24 -141 -103q-161 -125 -215 -177q-26 34 -35 42q-10 11 -50 42q160 144 349 284q6 -7 13 -15q25 -28 79 -73z" />
    <glyph glyph-name="ogonek" unicode="&#x2db;" horiz-adv-x="1024" vert-adv-y="2457" 
d="M544 0q-151 -58 -151 -179q0 -54 42 -77q23 -12 55 -12q23 0 67 6q-9 -22 -21 -95q-47 -5 -77 -5q-196 0 -196 139q0 84 69 154q42 42 93 69h119z" />
    <glyph glyph-name="caron" unicode="&#x2c7;" horiz-adv-x="1024" vert-adv-y="2457" 
d="M571 1522q38 22 97 68q81 -93 138 -240q127 139 279 240q7 -7 12 -14q27 -29 47 -49q15 -14 24 -24q-224 -106 -397 -370q-65 246 -200 389z" />
    <glyph glyph-name="Lslash" unicode="&#x141;" horiz-adv-x="876" vert-adv-y="2457" 
d="M769 -19q-202 6 -315 6q-196 0 -505 -20q4 27 4 58q0 32 -4 63l66 4q47 98 200 443l37 83l-29 -16q-116 -62 -155 -87q4 20 4 37q0 39 -6 74q77 35 246 127q67 151 138 313q73 164 137 316l20 47q16 -9 57 -37q15 -9 56 -32l-22 -48l-81 -176l-92 -201l-59 -129
q42 24 170 94q111 66 135 80q-7 -57 -10 -123q-57 -27 -160 -83q-144 -78 -190 -109q-83 -174 -117 -251q-113 -254 -140 -313q283 13 456 13q63 0 148 -3q0 -86 11 -130z" />
    <glyph glyph-name="lslash" unicode="&#x142;" horiz-adv-x="500" vert-adv-y="2457" 
d="M709 1346q-110 -204 -280 -604q40 25 123 73q37 21 96 58q-9 -35 -9 -103q0 -6 1 -18q-118 -54 -268 -150q-14 -36 -88 -222q-104 -261 -172 -474l-18 9q-78 36 -112 53q26 61 115 296q42 112 112 278q-106 -57 -208 -124q2 52 2 63q0 5 -1 39q-1 7 -1 21q71 29 268 148
q220 516 328 725q18 -11 55 -35q28 -18 57 -33z" />
    <glyph glyph-name="Scaron" unicode="&#x160;" horiz-adv-x="1483" vert-adv-y="2457" 
d="M1029 866q-19 22 -41 47q-28 33 -48 53q22 7 49 15q185 53 315 103q148 57 148 108q0 62 -195 62q-148 0 -344 -44q-203 -46 -327 -118q-56 -33 -94 -83q-20 -27 -20 -52q0 -46 73 -72q30 -10 177 -36q364 -63 472 -103t161 -94q65 -67 65 -167q0 -143 -140 -251
q-156 -121 -466 -203q-289 -76 -536 -76q-182 0 -278 65q-88 58 -88 147q0 148 208 254q183 94 476 131q110 14 266 28q5 -16 23 -60q22 -49 31 -66q-229 -3 -345 -21q-252 -37 -380 -103q-71 -37 -116 -83q-34 -36 -34 -68q0 -52 75 -84q58 -25 175 -25q210 0 443 59
q185 46 328 113q228 107 228 240q0 103 -176 162q-85 29 -431 92q-201 36 -264 72q-85 49 -85 133q0 118 138 220q139 102 399 159q204 44 378 44q166 0 257 -45q81 -40 81 -115q0 -88 -110 -162q-130 -87 -448 -176zM931 1853q38 23 97 68q81 -92 138 -240q127 140 279 240
q7 -7 12 -13q27 -29 47 -49q15 -14 24 -24q-224 -107 -396 -370q-66 246 -201 388z" />
    <glyph glyph-name="scaron" unicode="&#x161;" horiz-adv-x="1072" vert-adv-y="2457" 
d="M763 637q-18 12 -70 55q-41 33 -58 48q136 25 231 64q136 56 136 99q0 35 -93 35q-91 0 -232 -29q-148 -30 -261 -88q-91 -46 -91 -85q0 -47 116 -71q13 -3 227 -62q175 -48 232 -89q94 -68 94 -165q0 -117 -120 -207q-108 -81 -314 -127q-151 -33 -306 -33
q-344 0 -344 160q0 146 275 242q120 42 334 85q23 -23 92 -105q-41 -8 -53 -10q-520 -100 -520 -201q0 -66 217 -66q221 0 438 81q78 30 132 83q40 39 40 88q0 62 -86 101q-55 25 -117 42l-169 45q-174 46 -232 76q-87 45 -87 112q0 87 124 169q126 83 331 126
q171 35 305 35q100 0 156 -36q57 -37 57 -94q0 -67 -82 -130q-84 -64 -302 -148zM581 1522q38 22 97 68q81 -93 138 -240q127 139 279 240q7 -7 12 -14q27 -29 47 -49q15 -14 24 -24q-224 -106 -397 -370q-65 246 -200 389z" />
    <glyph glyph-name="Zcaron" unicode="&#x17d;" horiz-adv-x="1303" vert-adv-y="2457" 
d="M1252 -55q-110 8 -295 14q-424 15 -614 15q-309 0 -509 -29l-43 107q107 49 204 118q64 45 248 194q132 108 211 177l806 709q-119 -15 -266 -24q-251 -15 -406 -15q-41 0 -104 2q-6 41 -30 130q168 -3 211 -3q363 0 778 56q9 -45 34 -130q-90 -72 -285 -241
q-507 -444 -700 -605q-229 -192 -411 -330q176 10 344 10q43 0 308 -5q32 0 194 -1q173 -1 298 -4q5 -28 11 -66q9 -50 16 -79zM787 1853q38 23 96 68q82 -92 139 -240q126 140 279 240q6 -7 12 -13q27 -29 47 -49l24 -24q-224 -107 -397 -370q-66 246 -200 388z" />
    <glyph glyph-name="zcaron" unicode="&#x17e;" horiz-adv-x="893" vert-adv-y="2457" 
d="M795 13q-76 4 -133 4q-369 0 -828 -97v17q0 45 -13 87q292 217 865 837q-136 -12 -299 -12q-127 0 -233 12q-8 42 -31 128q185 -21 323 -21q194 0 395 21q5 -11 24 -45q21 -39 28 -53q-106 -84 -245 -233q-292 -306 -592 -585q412 70 785 68q-27 -49 -46 -128zM341 1522
q38 22 97 68q81 -93 138 -240q127 139 279 240q7 -7 12 -14q27 -29 47 -49q15 -14 24 -24q-224 -106 -397 -370q-65 246 -200 389z" />
    <glyph glyph-name="brokenbar" unicode="&#xa6;" horiz-adv-x="1024" vert-adv-y="2457" 
d="M836 1365h143l-295 -680h-144zM379 314h143l-285 -655h-143z" />
    <glyph glyph-name="Eth" unicode="&#xd0;" horiz-adv-x="1258" vert-adv-y="2457" 
d="M-121 -80q-23 87 -48 135q33 -1 49 -1q61 0 136 4l285 653h-22q-101 0 -148 -2q3 30 3 53t-3 47q21 0 86 -3q19 -1 40 -1q30 0 84 2l178 426q-69 -2 -214 -32q-9 51 -31 125q222 40 399 40q174 0 277 -38q155 -57 242 -191q83 -129 83 -294q0 -294 -200 -528
q-148 -172 -379 -253q-357 -126 -817 -142zM159 75q321 30 559 138q207 94 317 276q100 165 100 342q0 146 -83 257q-98 131 -302 145q-3 0 -93 2l-187 -428q45 -3 60 -3q107 0 189 5q-4 -29 -4 -48t4 -52q-60 3 -134 3q-65 0 -154 -1z" />
    <glyph glyph-name="eth" unicode="&#xf0;" horiz-adv-x="769" vert-adv-y="2457" 
d="M642 978q-2 24 -9 95q-4 51 -7 83q-135 -15 -231 -37q-3 46 -25 108q89 8 245 24q-5 59 -18 176l-3 27h16h58h53h14l2 -34q10 -124 13 -157q94 9 174 25q1 -35 22 -105q-44 -1 -157 -11l-33 -2l3 -45q10 -220 10 -286q0 -168 -51 -316q-55 -156 -158 -318
q-198 -311 -399 -311q-86 0 -139 73q-45 61 -45 146q0 175 117 415q116 238 266 374q116 105 206 105q37 0 76 -29zM556 872q-63 0 -141 -85q-114 -122 -206 -318q-98 -210 -98 -342q0 -45 21 -71q22 -28 53 -28q111 0 261 233q81 126 133 262q56 147 56 256q0 93 -79 93z
" />
    <glyph glyph-name="Yacute" unicode="&#xdd;" horiz-adv-x="1040" vert-adv-y="2457" 
d="M1308 1354q-9 -13 -18 -25q-131 -176 -416 -744q-235 -470 -408 -939q-15 8 -61 37q-46 26 -63 36q97 265 309 709q131 273 315 594l-726 -554q-13 15 -49 61q-34 40 -44 52q80 155 251 528q163 345 202 438q56 -66 105 -105l-22 -47q-166 -347 -317 -650l-24 -48
l460 347q203 162 268 237q78 87 130 161q35 -31 56 -47q41 -31 52 -41zM1392 1743q-236 -85 -477 -245q-24 73 -54 116q216 140 486 257q17 -75 45 -128z" />
    <glyph glyph-name="yacute" unicode="&#xfd;" horiz-adv-x="927" vert-adv-y="2457" 
d="M219 -638q-60 43 -109 70q31 63 153 291q135 254 289 555q93 178 148 276q-24 -21 -47 -42q-122 -109 -190 -164.5t-247 -190.5q-103 -78 -149 -115q-51 35 -107 70q252 524 334 721q74 174 101 229q62 -59 112 -91q-29 -57 -110 -229q-65 -134 -205 -416l-30 -62
q89 56 268 197q184 142 353 344q92 111 147 198q35 -43 94 -104q-44 -68 -321 -595q-219 -422 -454 -884zM1187 1402q-237 -85 -478 -245q-24 73 -54 116q217 140 486 257q17 -75 46 -128z" />
    <glyph glyph-name="Thorn" unicode="&#xde;" horiz-adv-x="991" vert-adv-y="2457" 
d="M485 1056l31 74q144 343 173 417q31 -31 114 -91l-17 -38q-108 -244 -153 -351q41 1 61 1q176 0 284 -62q53 -31 84 -85q32 -55 32 -123q0 -213 -279 -351q-144 -71 -429 -154l-44 91q-251 -591 -308 -738q-46 35 -112 82q37 80 242 561l121 289l138 331l9 22
q-151 -20 -278 -45q-14 54 -45 119q289 43 376 51zM355 416q192 41 369 119q111 50 180 121q60 61 60 133q0 90 -92 134q-68 33 -168 33q-42 0 -121 -7l-79 -185l-79 -185z" />
    <glyph glyph-name="thorn" unicode="&#xfe;" horiz-adv-x="832" vert-adv-y="2457" 
d="M583 1414q19 -13 51 -33q31 -19 62 -39q-30 -56 -141 -281q-57 -116 -180 -356q259 263 414 263q58 0 92 -40q29 -34 29 -87q0 -167 -215 -423q-165 -196 -375 -341q-74 -50 -185 -114q-15 29 -67 96q-122 -253 -267 -599q-44 31 -121 75q50 97 294 610l159 332l151 316
q261 545 299 621zM84 86q222 104 419 304q129 130 219 271q62 98 62 145q0 13 -9 24q-11 14 -29 14q-55 0 -190 -108q-188 -150 -321 -367q-67 -109 -151 -283z" />
    <glyph glyph-name="minus" unicode="&#x2212;" vert-adv-y="2457" 
d="M272 745h1088l-55 -125h-1087z" />
    <glyph glyph-name="multiply" unicode="&#xd7;" vert-adv-y="2457" 
d="M612 1122l197 -350l502 350l63 -106l-506 -352l197 -349l-101 -71l-197 350l-501 -350l-63 106l504 351l-196 349z" />
    <glyph glyph-name="onesuperior" unicode="&#xb9;" horiz-adv-x="894" vert-adv-y="2457" 
d="M495 591q103 239 250 555l9 21q-105 -88 -184 -138q-19 50 -39 83q209 116 326 274q13 -9 38 -30q17 -12 39 -28q-42 -73 -154 -317q-82 -177 -184 -422h113l64 -1h14h20q1 -13 3 -42q1 -13 5 -47q-209 8 -455 8q-45 0 -94 -3q2 16 2 32q0 30 -1 54q43 2 59 2l55 -1h88
h26z" />
    <glyph glyph-name="twosuperior" unicode="&#xb2;" horiz-adv-x="894" vert-adv-y="2457" 
d="M872 504q-166 15 -264 15q-174 0 -262 -12q-72 -10 -150 -33q-26 47 -56 74q97 38 208 115q233 162 438 354q134 125 134 206q0 20 -15 34q-13 12 -32 12q-114 0 -281 -271q-18 20 -39 41t-35 37q89 116 150 173q113 106 222 106q59 0 95 -36q32 -33 32 -80
q0 -145 -274 -379q-196 -167 -346 -267q13 1 96 8q99 9 220 9q40 0 139 -4q8 -35 20 -102z" />
    <glyph glyph-name="threesuperior" unicode="&#xb3;" horiz-adv-x="894" vert-adv-y="2457" 
d="M203 543v10q0 41 -17 98q117 -57 245 -57q196 0 328 88q59 38 92 102q20 38 20 80q0 79 -76 124q-67 39 -166 39q-93 0 -180 -36q-6 11 -18 36q-7 10 -22 35q85 39 138 68l219 123q-139 -13 -263 -13q-16 0 -50 1q-2 11 -7 42q-2 12 -12 47q65 -6 133 -6q223 0 367 37
q4 -43 28 -100q-21 -11 -64 -34l-50 -25l-181 -100q98 -1 168 -33q64 -30 100 -80q39 -54 39 -114q0 -96 -74 -187q-79 -95 -228 -145q-111 -36 -235 -36q-126 0 -234 36z" />
    <glyph glyph-name="onehalf" unicode="&#xbd;" horiz-adv-x="1964" vert-adv-y="2457" 
d="M495 591q103 239 250 555l9 21q-105 -88 -184 -138q-19 50 -39 83q209 116 326 274q13 -9 38 -30q17 -12 39 -28q-42 -73 -154 -317q-82 -177 -184 -422h113l64 -1h14h20q1 -13 3 -42q1 -13 5 -47q-209 8 -455 8q-45 0 -94 -3q2 16 2 32q0 30 -1 54q43 2 59 2l55 -1h88
h26zM1589 1281q-122 -156 -203 -270q-429 -596 -521 -731q-113 -165 -221 -357q-70 67 -100 84q60 82 194 272q90 133 184 260q213 298 419 605q95 141 143 229q65 -63 105 -92zM1714 -18q-170 15 -264 15q-173 0 -262 -12q-74 -10 -150 -33q-26 48 -56 75q97 38 208 115
q234 163 438 354q134 125 134 206q0 20 -15 34q-13 12 -32 12q-114 0 -281 -271q-18 19 -39 41q-21 20 -35 36q88 115 150 174q112 106 222 106q59 0 95 -36q32 -33 32 -80q0 -143 -275 -379q-192 -165 -345 -267q13 1 95 8q99 8 222 8q41 0 138 -4q7 -34 20 -102z" />
    <glyph glyph-name="onequarter" unicode="&#xbc;" horiz-adv-x="1964" vert-adv-y="2457" 
d="M495 591q103 239 250 555l9 21q-105 -88 -184 -138q-19 50 -39 83q209 116 326 274q13 -9 38 -30q17 -12 39 -28q-42 -73 -154 -317q-82 -177 -184 -422h113l64 -1h14h20q1 -13 3 -42q1 -13 5 -47q-209 8 -455 8q-45 0 -94 -3q2 16 2 32q0 30 -1 54q43 2 59 2l55 -1h88
h26zM1589 1281q-122 -156 -203 -270q-429 -596 -521 -731q-113 -165 -221 -357q-70 67 -100 84q60 82 194 272q90 133 184 260q213 298 419 605q95 141 143 229q65 -63 105 -92zM1470 -55q-20 9 -54 25l-28 13l-16 7q44 87 116 249h-38q-158 0 -321 -15q-12 13 -33 39
q-15 18 -34 39q152 90 372 262q190 148 273 232q41 42 96 100q12 -15 28 -41q23 -30 33 -44q-32 -46 -92 -176l-138 -307q108 0 218 -8q3 -27 17 -98q-90 12 -278 16q-12 -24 -35 -77q-20 -48 -40 -94q-31 -73 -46 -122zM1529 327q11 25 63 136q76 163 100 210
q-108 -99 -207 -177q-163 -127 -253 -181q179 10 297 12z" />
    <glyph glyph-name="threequarters" unicode="&#xbe;" horiz-adv-x="1964" vert-adv-y="2457" 
d="M203 543v10q0 41 -17 98q117 -57 245 -57q196 0 328 88q59 38 92 102q20 38 20 80q0 79 -76 124q-67 39 -166 39q-93 0 -180 -36q-6 11 -18 36q-7 10 -22 35q85 39 138 68l219 123q-139 -13 -263 -13q-16 0 -50 1q-2 11 -7 42q-2 12 -12 47q65 -6 133 -6q223 0 367 37
q4 -43 28 -100q-21 -11 -64 -34l-50 -25l-181 -100q98 -1 168 -33q64 -30 100 -80q39 -54 39 -114q0 -96 -74 -187q-79 -95 -228 -145q-111 -36 -235 -36q-126 0 -234 36zM1590 1281q-122 -156 -203 -270q-429 -596 -521 -731q-114 -165 -221 -357q-71 67 -100 84
q60 82 193 272q92 131 185 260q213 298 419 605q95 141 143 229q65 -63 105 -92zM1471 -55q-20 9 -54 25l-28 13l-16 7q44 87 116 249h-38q-158 0 -322 -15q-12 13 -32 39q-15 18 -34 39q152 90 372 262q190 148 273 232q41 42 96 100q11 -15 28 -41q23 -30 32 -44
q-32 -46 -91 -176l-139 -307q109 0 218 -8q4 -27 17 -98q-90 12 -277 16q-12 -24 -35 -77q-20 -48 -40 -94q-31 -73 -46 -122zM1529 327q12 25 64 136q76 163 100 210q-108 -99 -207 -177q-164 -127 -253 -181q178 10 296 12z" />
    <glyph glyph-name="franc" unicode="&#x20a3;" vert-adv-y="2457" 
d="M765 -30q-20 8 -57 24q-17 7 -60 21q117 231 306 697q67 -31 115 -49q-12 -29 -30 -65q-9 -20 -15 -34q104 86 250 183q9 -9 17 -19q21 -23 37 -41q14 -16 32 -37q-105 -45 -248 -152q-169 -125 -250 -303q-55 -117 -97 -225zM288 -54q-49 34 -120 74l327 776
q-118 -6 -163 -13q-4 13 -20 68q-5 20 -24 64q62 -1 96 -1q66 0 159 3l131 315q-59 0 -103 -3q-4 20 -16 70q-4 17 -14 66q139 -7 418 -7q232 0 384 3l5 -13q23 -62 52 -128q-60 2 -236 6l-157 3l-128 3l-65 1l-131 -317q153 4 270 18l38 -123q-133 -2 -358 -13l-299 -715
q-25 -75 -46 -137z" />
    <glyph glyph-name="Gbreve" unicode="&#x11e;" horiz-adv-x="1329" vert-adv-y="2457" 
d="M757 -518l-19 18q-34 32 -61 55q-16 14 -28 26l311 681q-88 -100 -183 -168q-189 -132 -347 -132q-143 0 -235 118q-83 105 -83 269q0 250 168 505q238 361 614 482q206 66 434 75q7 -16 29 -74q5 -13 35 -78q-75 7 -127 7q-338 0 -624 -213q-218 -163 -326 -395
q-70 -149 -70 -293q0 -136 67 -210q57 -62 139 -62q151 0 341 162q248 212 357 487q-364 -76 -590 -82q-9 96 -23 129q213 9 384 33q245 37 361 78q22 -29 82 -86q-77 -80 -240 -455q-161 -370 -366 -877zM1458 1820q-37 -118 -94 -186q-99 -121 -286 -121q-138 0 -191 89
q-28 46 -28 111q0 55 17 96q19 -4 39 -4q35 0 74 4q-14 -32 -14 -65q0 -114 117 -114q174 0 232 174q19 -2 29 -2q45 0 105 18z" />
    <glyph glyph-name="gbreve" unicode="&#x11f;" horiz-adv-x="822" vert-adv-y="2457" 
d="M1087 1494q-37 -117 -93 -185q-99 -121 -287 -121q-137 0 -190 89q-28 46 -28 111q0 55 17 95q18 -4 39 -4q35 0 74 4q-14 -31 -14 -64q0 -114 117 -114q173 0 231 174q19 -2 29 -2q47 0 105 17zM891 908q-81 -146 -139 -277q-60 -135 -106 -265q-54 -153 -106 -310
q-81 -237 -150 -349q-148 -240 -343 -240q-112 0 -180 76q-59 66 -59 180q0 65 27 132l135 16q-38 -103 -38 -150q0 -60 42 -103q31 -32 83 -32q108 0 199 118q85 110 164 335q29 85 85 258q-233 -344 -414 -344q-69 0 -109 64q-28 45 -28 104q0 160 147 379
q122 181 290 320q184 150 357 254q42 -56 85 -104l-58 -32q36 -12 54 -16q47 -10 62 -14zM748 925q-291 -164 -462 -375q-108 -134 -159 -245q-46 -100 -46 -165q0 -55 42 -55q110 0 348 342q154 220 277 498z" />
    <glyph glyph-name="Idot" unicode="&#x130;" horiz-adv-x="527" vert-adv-y="2457" 
d="M119 -58q-45 34 -59 44q-41 28 -53 38q22 49 113 265q390 931 462 1112q33 -35 112 -91l-16 -38l-127 -296l-167 -396l-147 -350l-105 -257zM766 1516q-14 15 -54 53q-41 40 -58 54q47 112 112 206q70 -75 109 -109q-34 -47 -53 -86q-22 -45 -56 -118z" />
    <glyph glyph-name="Scedilla" unicode="&#x15e;" horiz-adv-x="1483" vert-adv-y="2457" 
d="M634 -9l-102 -181q90 -26 90 -98t-47 -138q-55 -76 -169 -108q-65 -18 -128 -18q-27 0 -66 6q47 64 56 104q42 -4 53 -4q63 0 118 38q57 39 57 91q0 47 -56 60q-17 4 -58 6l129 222q-129 -16 -225 -16q-190 0 -287 65q-87 58 -87 147q0 148 208 254q184 94 476 131
q109 14 266 28q5 -16 23 -60q22 -49 31 -66q-228 -3 -345 -21q-252 -37 -380 -103q-71 -37 -116 -83q-34 -36 -34 -68q0 -52 75 -84q58 -25 175 -25q210 0 443 59q185 46 328 113q228 107 228 240q0 103 -176 162q-85 29 -431 92q-201 36 -264 72q-85 49 -85 133
q0 118 138 220q139 102 399 159q204 44 378 44q166 0 257 -45q81 -40 81 -115q0 -88 -110 -162q-130 -87 -448 -176q-19 22 -41 47q-28 33 -48 53q25 8 49 15q184 52 315 103q148 57 148 108q0 62 -195 62q-149 0 -344 -44q-204 -46 -327 -118q-56 -32 -94 -83
q-20 -27 -20 -52q0 -46 73 -72q30 -10 177 -36q364 -63 472 -103t161 -94q65 -67 65 -167q0 -143 -140 -251q-150 -116 -455 -200q-85 -23 -191 -43z" />
    <glyph glyph-name="scedilla" unicode="&#x15f;" horiz-adv-x="1072" vert-adv-y="2457" 
d="M431 -7l-96 -169q83 -25 83 -92t-44 -128q-51 -72 -156 -101q-61 -17 -119 -17q-25 0 -61 6q11 16 30 50q16 31 22 47q37 -4 49 -4q59 0 109 35q53 37 53 85q0 57 -106 62l126 217q-49 -2 -72 -2q-339 0 -339 160q0 145 275 242q120 42 334 85q23 -23 92 -105
q-30 -6 -191 -37q-132 -25 -273 -81q-109 -43 -109 -93q0 -65 217 -65q222 0 438 81q78 30 132 82q40 39 40 88q0 63 -86 102q-55 25 -117 41l-169 45q-174 46 -232 76q-87 45 -87 112q0 87 124 169q126 83 331 126q171 35 305 35q100 0 156 -36q57 -37 57 -94
q0 -67 -82 -130q-84 -64 -302 -148q-18 12 -70 55q-41 33 -58 48q136 25 231 64q136 56 136 99q0 35 -93 35q-91 0 -232 -29q-148 -30 -261 -88q-91 -46 -91 -85q0 -47 116 -71q13 -3 227 -62q175 -48 232 -89q94 -68 94 -165q0 -117 -120 -207q-142 -106 -443 -149z" />
    <glyph glyph-name="Cacute" unicode="&#x106;" horiz-adv-x="1086" vert-adv-y="2457" 
d="M1056 463q-133 -200 -293 -346q-215 -196 -406 -196q-154 0 -231 118q-55 84 -55 203q0 249 159 526q192 334 514 494q194 96 454 127l5 -18q22 -83 39 -122q-192 0 -376 -71q-210 -80 -350 -229q-153 -161 -240 -371q-70 -169 -70 -315q0 -98 45 -151q43 -51 114 -51
q166 0 376 218q103 106 214 270q11 -9 44 -40q43 -34 57 -46zM1388 1743q-237 -85 -477 -245q-25 73 -54 116q216 140 486 257q17 -75 45 -128z" />
    <glyph glyph-name="cacute" unicode="&#x107;" horiz-adv-x="744" vert-adv-y="2457" 
d="M1082 1402q-237 -85 -478 -245q-24 73 -54 116q217 140 486 257q17 -75 46 -128zM620 203q-254 -282 -452 -282q-93 0 -144 73q-42 60 -42 144q0 175 110 377q114 211 296 355q150 120 290 120q73 0 116 -44q44 -45 44 -111q0 -55 -34 -127q-10 -21 -33 -63
q-54 24 -134 38q72 89 72 131q0 22 -16 37q-19 18 -46 18q-126 0 -312 -222q-113 -136 -169 -270q-53 -124 -53 -221q0 -51 24 -83q22 -30 62 -30q98 0 225 125q52 51 102 125q17 -15 46 -43q18 -19 48 -47z" />
    <glyph glyph-name="Ccaron" unicode="&#x10c;" horiz-adv-x="1086" vert-adv-y="2457" 
d="M1056 463q-133 -200 -293 -346q-215 -196 -406 -196q-154 0 -231 118q-55 84 -55 203q0 249 159 526q192 334 514 494q194 96 454 127l5 -18q22 -83 39 -122q-192 0 -376 -71q-210 -80 -350 -229q-153 -161 -240 -371q-70 -169 -70 -315q0 -98 45 -151q43 -51 114 -51
q166 0 376 218q103 106 214 270q11 -9 44 -40q43 -34 57 -46zM733 1853q38 23 96 68q82 -92 139 -240q126 140 279 240q6 -7 12 -13q27 -29 47 -49l24 -24q-224 -107 -397 -370q-66 246 -200 388z" />
    <glyph glyph-name="ccaron" unicode="&#x10d;" horiz-adv-x="744" vert-adv-y="2457" 
d="M499 1522q38 22 97 68q81 -93 138 -240q127 139 279 240q7 -7 12 -14q27 -29 47 -49q15 -14 24 -24q-224 -106 -397 -370q-65 246 -200 389zM620 203q-254 -282 -452 -282q-93 0 -144 73q-42 60 -42 144q0 175 110 377q114 211 296 355q150 120 290 120q73 0 116 -44
q44 -45 44 -111q0 -55 -34 -127q-10 -21 -33 -63q-54 24 -134 38q72 89 72 131q0 22 -16 37q-19 18 -46 18q-126 0 -312 -222q-113 -136 -169 -270q-53 -124 -53 -221q0 -51 24 -83q22 -30 62 -30q98 0 225 125q52 51 102 125q17 -15 46 -43q18 -19 48 -47z" />
    <glyph glyph-name="dmacron" unicode="&#x111;" horiz-adv-x="838" vert-adv-y="2457" 
d="M840 1131q-169 -9 -250 -25q-5 48 -23 109q37 -2 52 -2q36 0 123 7q64 5 135 8q40 89 72 182q38 -32 120 -79q-21 -42 -48 -100q42 2 111 12q-2 -21 -2 -33q0 -31 19 -73q-45 4 -62 4q-3 0 -108 -4q-216 -497 -293 -720q-96 -280 -154 -514q-48 27 -109 52q10 40 48 162
q43 141 61 196q-110 -149 -192 -227q-138 -130 -253 -130q-62 0 -103 51q-35 44 -35 105q0 149 131 358q115 183 329 358q74 60 278 194q8 -13 27 -55q20 -42 28 -61q-258 -147 -439 -342q-117 -127 -179 -257q-51 -109 -51 -175q0 -22 11 -37q13 -18 35 -18q73 0 239 181
q166 182 327 512q33 68 125 289q19 45 30 72z" />
    <glyph glyph-name="nbspace" unicode="&#xa0;" horiz-adv-x="512" vert-adv-y="2457" 
 />
    <glyph glyph-name="sfthyphen" unicode="&#xad;" horiz-adv-x="500" vert-adv-y="2457" 
d="M472 408h-52l-196 -3q-25 0 -247 3q23 35 58 143q118 -10 288 -10q104 0 196 10q-7 -20 -25 -70q-8 -22 -22 -73z" />
    <glyph glyph-name="overscore" unicode="&#xaf;" horiz-adv-x="1024" vert-adv-y="2457" 
d="M569 1764h1024l-56 -129h-1024z" />
    <glyph glyph-name="middot" unicode="&#xb7;" horiz-adv-x="445" vert-adv-y="2457" 
d="M348 585q-23 -48 -101 -288q-23 19 -64 47q-30 20 -54 39q70 183 103 276q37 -27 116 -74z" />
    <glyph glyph-name="glyph262" horiz-adv-x="512" vert-adv-y="2457" 
 />
    </font>
</defs>
</svg>
